<svg width="20" height="16" viewBox="0 0 20 16" fill="none" xmlns="http://www.w3.org/2000/svg">
<path fill-rule="evenodd" clip-rule="evenodd" d="M10 13C12.2091 13 14 11.2091 14 9C14 6.79086 12.2091 5 10 5C7.79086 5 6 6.79086 6 9C6 11.2091 7.79086 13 10 13ZM10 11C11.1046 11 12 10.1046 12 9C12 7.89543 11.1046 7 10 7C8.89543 7 8 7.89543 8 9C8 10.1046 8.89543 11 10 11Z" fill="#1B95BC"/>
<path fill-rule="evenodd" clip-rule="evenodd" d="M2 2C2 0.895431 2.89543 0 4 0H7C8.10457 0 9 0.895431 9 2H18C19.1046 2 20 2.89543 20 4V14C20 15.1046 19.1046 16 18 16H2C0.895431 16 0 15.1046 0 14V4C0 2.89543 0.895431 2 2 2ZM4.5 2H6.5C6.77614 2 7 1.77614 7 1.5C7 1.22386 6.77614 1 6.5 1H4.5C4.22386 1 4 1.22386 4 1.5C4 1.77614 4.22386 2 4.5 2ZM3 4C2.44772 4 2 4.44772 2 5V13C2 13.5523 2.44772 14 3 14H17C17.5523 14 18 13.5523 18 13V5C18 4.44772 17.5523 4 17 4H3Z" fill="#1B95BC"/>
</svg>
