<svg width="21" height="22" viewBox="0 0 21 22" fill="none" xmlns="http://www.w3.org/2000/svg">
<path fill-rule="evenodd" clip-rule="evenodd" d="M19.6924 6.36398C20.4734 5.58293 20.4734 4.3166 19.6924 3.53555L17.571 1.41422C16.79 0.63317 15.5237 0.63317 14.7426 1.41422L3.02059 13.1363C2.82957 13.3273 2.72396 13.5875 2.7278 13.8576L2.77726 17.3436C2.78493 17.8848 3.22179 18.3217 3.76298 18.3293L7.24907 18.3788C7.51917 18.3826 7.77934 18.277 7.97035 18.086L19.6924 6.36398ZM17.9246 5.30326C18.1199 5.108 18.1199 4.79141 17.9246 4.59615L16.5104 3.18192C16.3151 2.98666 15.9986 2.98666 15.8033 3.18192C15.6081 3.37717 15.6081 3.69375 15.8033 3.88901L17.2175 5.30325C17.4128 5.49851 17.7294 5.49852 17.9246 5.30326ZM15.4498 7.77815C15.8403 7.38762 15.8403 6.75446 15.4498 6.36394L14.7427 5.65682C14.3521 5.26629 13.719 5.26629 13.3284 5.65682L5.55026 13.435L5.55753 13.4423C5.32428 13.6755 5.32428 14.0537 5.55754 14.287L6.55136 15.2808C6.94189 15.6713 7.57507 15.6713 7.96559 15.2808L7.97672 15.2697L7.9675 15.2604L15.4498 7.77815ZM4.18048 15.1925C4.11752 15.1254 4.00492 15.1718 4.00756 15.2638L4.05763 17.0112C4.06074 17.1194 4.14932 17.2055 4.25755 17.2055L5.83669 17.2056C5.92423 17.2056 5.96952 17.101 5.90965 17.0372L4.18048 15.1925Z" fill="#3589ad"/>
<path d="M2 4.10663H9.92892L7.92892 6.10663H3C2.44772 6.10663 2 6.55432 2 7.10663V18.1066C2 18.6589 2.44772 19.1066 3 19.1066H14C14.5523 19.1066 15 18.6589 15 18.1066V13.1777L17 11.1777V19.1066C17 20.2112 16.1046 21.1066 15 21.1066H2C0.895416 21.1066 0 20.2112 0 19.1066V6.10663C0 5.00208 0.895416 4.10663 2 4.10663Z" fill="#3589ad"/>
</svg>
