<svg width="21" height="21" viewBox="0 0 21 21" fill="none" xmlns="http://www.w3.org/2000/svg">
<path fill-rule="evenodd" clip-rule="evenodd" d="M14.6066 0.585754C15.3876 -0.195251 16.654 -0.195251 17.435 0.585754L20.2635 3.41418C21.0445 4.19525 21.0445 5.46161 20.2635 6.24261L8.88052 17.6255C8.88052 17.6255 8.73438 17.7729 8.58984 17.7729H3.61969C3.34186 17.7742 3.11633 17.5486 3.11752 17.2708L3.13959 12.1584C3.13992 12.0781 3.22366 11.9687 3.22366 11.9687L14.6066 0.585754ZM4.68115 13.3397L7.50827 16.1694L15.7925 7.88519C16.183 7.49469 16.183 6.86151 15.7925 6.47101L14.3783 5.05676C13.9878 4.66626 13.3546 4.66626 12.9641 5.05676L4.68115 13.3397ZM16.3059 2.46771C16.098 2.25983 15.761 2.25983 15.5531 2.46771C15.3452 2.6756 15.3452 3.01263 15.5531 3.22052L17.6288 5.29614C17.8366 5.50403 18.1736 5.50403 18.3815 5.29614C18.5894 5.08826 18.5894 4.75122 18.3815 4.5434L16.3059 2.46771Z" fill="#3589ad"/>
<path d="M10.3848 3.17157H2C0.895416 3.17157 0 4.06702 0 5.17157V18.1716C0 19.2761 0.895416 20.1716 2 20.1716H15C16.1046 20.1716 17 19.2761 17 18.1716V11.0615L9 18.6716H8.98956H2.5C2.22388 18.6716 2 18.4478 2 18.1716V11.6821L10.3848 3.17157Z" fill="#3589ad"/>
</svg>
