<svg width="17" height="16" viewBox="0 0 17 16" fill="none" xmlns="http://www.w3.org/2000/svg">
<path d="M11.3734 0C11.801 0 12.1973 0.134197 12.5224 0.362774L10.7409 2.09452C10.6119 2.03389 10.4679 2 10.316 2H3.05745C2.50516 2 2.05745 2.44772 2.05745 3V13C2.05745 13.5523 2.50516 14 3.05745 14H10.316C10.8682 14 11.316 13.5523 11.316 13V10.451L13.3734 8.45098V14C13.3734 15.1046 12.478 16 11.3734 16H2C0.89543 16 0 15.1046 0 14V2C0 0.895431 0.89543 0 2 0H11.3734Z" fill="#1B95BC"/>
<path d="M14.2335 1.69703C13.8375 1.31207 13.1954 1.31207 12.7994 1.69703L5.66335 8.63382C5.56826 8.72625 5.51485 8.85161 5.51484 8.98233L5.51483 11.0254C5.51482 11.2903 5.73036 11.5079 6.00276 11.5179L8.20338 11.5985C8.34438 11.6037 8.48122 11.5515 8.581 11.4545L15.7091 4.52545C16.1051 4.1405 16.1051 3.51636 15.7091 3.1314L14.2335 1.69703Z" fill="#1B95BC"/>
</svg>
