<svg width="1440" height="1024" viewBox="0 0 1440 1024" fill="none" xmlns="http://www.w3.org/2000/svg">
    <rect width="1440" height="1024" fill="white"/>
    <path d="M1063.31 0C1163.36 192.29 1310.31 576.964 1179.01 741.393C1027.2 931.494 722.871 795.157 416.618 657.959C394.25 647.938 371.871 637.912 349.541 628.009C225.948 573.197 103.316 550.131 1 551.672L1 0L1063.31 0Z" fill="url(#paint0_radial)"/>
    <path d="M0.422852 552.89V471.478C71.6962 436.141 135.654 412.744 169.098 419.017C210.816 426.842 264.627 473.083 327.803 527.372C378.413 570.862 443.197 627.17 504.423 665.376C492.648 671.397 475.093 673.943 459.071 676.899C313.282 611.561 169.098 545.674 0.422852 552.89Z" fill="url(#paint1_linear)"/>
    <path opacity="0.8" d="M982 208.522C966.735 208.522 955.462 203.739 948.652 213.087C940.197 203.739 931.742 204.609 920 202C934.091 207 936.477 208.259 944.189 217C955.368 209.576 966.5 210.043 982 208.522Z" fill="white"/>
    <path opacity="0.6" d="M942 228.818C930.052 230.455 925.377 228.273 921.221 232.091C915.318 226.779 912.909 229.364 902 225C911.87 232.091 913.459 229.372 919.662 237C924.857 230.455 931.091 233.182 942 228.818Z" fill="white"/>
    <path d="M1181.61 742.505C1198.38 721.505 1210.62 696.916 1219 669.596C1152.58 617.468 1131.38 502 1064.07 502C1017.1 502 878.703 662.18 714 662.18C747.726 682.087 780.369 706.239 813.595 730.823C866.415 769.904 930.482 816.108 983.153 836C1062.66 833.332 1130.7 806.249 1181.61 742.505Z" fill="url(#paint2_linear)"/>
    <path d="M976.441 761.622C976.88 758.791 974.82 756.12 971.839 755.657C968.858 755.194 966.085 757.114 965.646 759.945L963.413 774.322C963.258 775.318 961.912 775.62 961.28 774.8L959.493 772.484C957.631 770.071 954.091 769.521 951.585 771.256C949.206 772.903 948.596 776.04 950.189 778.444L955.624 786.647C956.019 787.244 955.411 787.968 954.716 787.73L954.263 787.575C950.819 786.396 947.145 788.468 946.614 791.89C946.148 794.894 947.654 797.894 950.417 799.466L951.022 799.81C959.257 804.493 969.018 806.009 978.285 804.044L978.956 803.901C982.072 803.241 984.422 800.834 984.889 797.824C985.421 794.403 982.556 791.312 978.918 791.379L978.277 791.391C977.528 791.405 977.164 790.514 977.731 790.056L985.166 784.06C987.41 782.251 987.779 779.078 986.011 776.787C984.149 774.373 980.607 773.823 978.1 775.558L976.123 776.927C975.272 777.516 974.081 776.82 974.235 775.824L976.441 761.622Z" fill="#6BEFB8"/>
    <path d="M971.053 766.264C971.116 765.855 970.836 765.471 970.427 765.408C970.017 765.344 969.634 765.625 969.57 766.034L971.053 766.264ZM960.519 824.321C960.455 824.73 960.735 825.113 961.145 825.177C961.554 825.24 961.937 824.96 962.001 824.551L960.519 824.321ZM980.394 781.956C980.72 781.7 980.776 781.228 980.52 780.903C980.264 780.577 979.793 780.521 979.467 780.777L980.394 781.956ZM966.28 792.106L965.659 792.527C965.776 792.699 965.959 792.815 966.165 792.847C966.371 792.879 966.581 792.824 966.744 792.696L966.28 792.106ZM957.317 777.53C957.085 777.187 956.619 777.097 956.276 777.329C955.933 777.561 955.843 778.028 956.075 778.371L957.317 777.53ZM977.626 798.207C978.025 798.098 978.261 797.685 978.151 797.286C978.042 796.886 977.629 796.651 977.229 796.761L977.626 798.207ZM964.912 800.915L964.504 801.544C964.684 801.66 964.904 801.695 965.111 801.638L964.912 800.915ZM954.435 793.221C954.088 792.996 953.624 793.094 953.398 793.442C953.173 793.789 953.271 794.254 953.619 794.479L954.435 793.221ZM969.57 766.034L960.519 824.321L962.001 824.551L971.053 766.264L969.57 766.034ZM979.467 780.777L965.817 791.517L966.744 792.696L980.394 781.956L979.467 780.777ZM956.075 778.371L965.659 792.527L966.901 791.686L957.317 777.53L956.075 778.371ZM977.229 796.761L964.714 800.192L965.111 801.638L977.626 798.207L977.229 796.761ZM953.619 794.479L964.504 801.544L965.321 800.286L954.435 793.221L953.619 794.479Z" fill="white"/>
    <path d="M765.721 641.773C766.077 639.652 764.555 637.628 762.322 637.254C760.089 636.879 757.99 638.295 757.634 640.416L755.827 651.186C755.701 651.933 754.688 652.147 754.221 651.526L752.901 649.771C751.525 647.943 748.873 647.498 746.977 648.777C745.176 649.991 744.689 652.341 745.863 654.159L749.867 660.366C750.158 660.818 749.696 661.356 749.176 661.171L748.837 661.051C746.263 660.134 743.487 661.656 743.057 664.22C742.679 666.47 743.782 668.736 745.842 669.94L746.293 670.204C752.431 673.795 759.744 675.022 766.718 673.631L767.223 673.531C769.568 673.063 771.354 671.278 771.732 669.023C772.162 666.46 770.04 664.114 767.308 664.131L766.828 664.134C766.265 664.138 766 663.466 766.43 663.127L772.066 658.695C773.766 657.357 774.072 654.979 772.766 653.243C771.39 651.414 768.737 650.969 766.839 652.249L765.343 653.258C764.698 653.692 763.811 653.159 763.936 652.413L765.721 641.773Z" fill="#D6E8A3"/>
    <path d="M761.449 645.177C761.483 644.973 761.346 644.779 761.141 644.745C760.937 644.711 760.744 644.849 760.709 645.053L761.449 645.177ZM753.383 688.72C753.348 688.924 753.486 689.118 753.69 689.152C753.895 689.186 754.088 689.048 754.122 688.844L753.383 688.72ZM768.389 656.922C768.553 656.796 768.584 656.561 768.458 656.397C768.332 656.232 768.096 656.201 767.932 656.327L768.389 656.922ZM757.816 664.561L757.503 664.768C757.561 664.855 757.651 664.914 757.754 664.931C757.857 664.949 757.962 664.922 758.045 664.859L757.816 664.561ZM751.065 653.642C750.951 653.469 750.718 653.421 750.545 653.535C750.372 653.649 750.325 653.882 750.439 654.055L751.065 653.642ZM766.229 669.063C766.429 669.01 766.549 668.806 766.497 668.605C766.445 668.405 766.24 668.285 766.04 668.337L766.229 669.063ZM756.709 671.161L756.501 671.473C756.59 671.532 756.7 671.551 756.804 671.524L756.709 671.161ZM748.811 665.446C748.639 665.332 748.406 665.378 748.291 665.55C748.176 665.723 748.223 665.956 748.395 666.071L748.811 665.446ZM760.709 645.053L753.383 688.72L754.122 688.844L761.449 645.177L760.709 645.053ZM767.932 656.327L757.588 664.264L758.045 664.859L768.389 656.922L767.932 656.327ZM750.439 654.055L757.503 664.768L758.129 664.355L751.065 653.642L750.439 654.055ZM766.04 668.337L756.614 670.798L756.804 671.524L766.229 669.063L766.04 668.337ZM748.395 666.071L756.501 671.473L756.917 670.849L748.811 665.446L748.395 666.071Z" fill="white"/>
    <path d="M932.383 765.581C932.353 763.732 930.751 762.259 928.805 762.29C926.858 762.322 925.305 763.846 925.334 765.694L925.486 775.082C925.496 775.732 924.673 776.071 924.181 775.619L922.791 774.341C921.344 773.01 919.032 773.047 917.628 774.424C916.295 775.732 916.25 777.794 917.525 779.149L921.879 783.772C922.195 784.108 921.888 784.636 921.419 784.56L921.114 784.511C918.795 784.137 916.685 785.857 916.721 788.091C916.753 790.053 918.039 791.796 919.968 792.494L920.391 792.646C926.139 794.725 932.514 794.622 938.192 792.36L938.604 792.196C940.513 791.435 941.745 789.647 941.713 787.682C941.677 785.448 939.518 783.796 937.211 784.236L936.805 784.314C936.33 784.404 936 783.877 936.311 783.524L940.385 778.898C941.614 777.502 941.502 775.444 940.128 774.18C938.679 772.848 936.366 772.885 934.961 774.263L933.854 775.35C933.377 775.818 932.543 775.505 932.533 774.854L932.383 765.581Z" fill="#B4E9A2"/>
    <path d="M929.48 769.122C929.475 768.846 929.248 768.626 928.972 768.63C928.696 768.635 928.475 768.862 928.48 769.138L929.48 769.122ZM929.093 807.198C929.097 807.474 929.325 807.694 929.601 807.689C929.877 807.685 930.097 807.458 930.093 807.181L929.093 807.198ZM937.132 778.092C937.317 777.887 937.301 777.571 937.096 777.386C936.891 777.201 936.574 777.217 936.389 777.422L937.132 778.092ZM929.253 786.079L928.892 786.426C928.988 786.526 929.122 786.582 929.261 786.579C929.4 786.577 929.531 786.517 929.624 786.414L929.253 786.079ZM921.971 777.777C921.779 777.578 921.463 777.572 921.264 777.763C921.065 777.954 921.058 778.271 921.25 778.47L921.971 777.777ZM937.142 788.734C937.392 788.617 937.5 788.32 937.383 788.07C937.266 787.819 936.968 787.712 936.718 787.829L937.142 788.734ZM929.346 791.831L929.148 792.291C929.279 792.347 929.428 792.344 929.557 792.284L929.346 791.831ZM921.848 788.068C921.594 787.959 921.3 788.077 921.191 788.33C921.082 788.584 921.199 788.878 921.453 788.987L921.848 788.068ZM928.48 769.138L929.093 807.198L930.093 807.181L929.48 769.122L928.48 769.138ZM936.389 777.422L928.882 785.744L929.624 786.414L937.132 778.092L936.389 777.422ZM921.25 778.47L928.892 786.426L929.613 785.733L921.971 777.777L921.25 778.47ZM936.718 787.829L929.134 791.378L929.557 792.284L937.142 788.734L936.718 787.829ZM921.453 788.987L929.148 792.291L929.543 791.372L921.848 788.068L921.453 788.987Z" fill="white"/>
    <path d="M459 676.952C512.821 655.032 570.277 608.385 605.476 603.202C654.209 596.026 867.103 781.974 993 835.107C803.622 846.734 607.546 742.107 459 676.952Z" fill="url(#paint3_linear)"/>
    <path d="M862.259 694.106C862.893 687.704 858.011 681.98 851.354 681.321C844.697 680.662 838.787 685.317 838.153 691.719L834.934 724.227C834.71 726.48 831.766 727.328 830.267 725.571L826.031 720.605C821.62 715.433 813.714 714.65 808.374 718.856C803.302 722.851 802.329 729.961 806.144 735.146L819.164 752.844C820.11 754.131 818.851 755.833 817.283 755.387L816.261 755.097C808.493 752.891 800.607 758.003 799.841 765.74C799.168 772.532 802.863 779.066 809.171 782.238L810.553 782.933C829.349 792.385 851.147 794.543 871.432 788.962L872.902 788.557C879.722 786.681 884.637 780.987 885.311 774.182C886.077 766.446 879.363 759.881 871.313 760.494L869.897 760.602C868.24 760.728 867.326 758.776 868.527 757.679L884.273 743.295C889.024 738.954 889.46 731.794 885.272 726.884C880.858 721.709 872.948 720.926 867.605 725.135L863.391 728.453C861.577 729.883 858.856 728.474 859.079 726.221L862.259 694.106Z" fill="#9EC1A4"/>
    <path opacity="0.8" d="M850.722 705.18C850.804 704.356 850.202 703.621 849.377 703.54C848.553 703.458 847.818 704.06 847.737 704.885L850.722 705.18ZM834.684 836.684C834.603 837.509 835.205 838.243 836.029 838.325C836.854 838.406 837.588 837.804 837.67 836.98L834.684 836.684ZM873.354 739.041C873.973 738.489 874.027 737.541 873.475 736.923C872.924 736.304 871.976 736.25 871.358 736.802L873.354 739.041ZM843.417 763.728L842.217 764.629C842.469 764.964 842.851 765.179 843.268 765.22C843.686 765.262 844.102 765.127 844.415 764.847L843.417 763.728ZM821.694 732.312C821.196 731.65 820.256 731.516 819.594 732.014C818.931 732.511 818.798 733.452 819.295 734.114L821.694 732.312ZM869.229 775.788C870.014 775.521 870.433 774.669 870.167 773.885C869.9 773.1 869.048 772.681 868.264 772.947L869.229 775.788ZM841.444 783.646L840.692 784.944C841.067 785.161 841.517 785.206 841.927 785.066L841.444 783.646ZM817.244 767.895C816.527 767.479 815.609 767.724 815.194 768.441C814.779 769.157 815.023 770.075 815.74 770.49L817.244 767.895ZM847.737 704.885L834.684 836.684L837.67 836.98L850.722 705.18L847.737 704.885ZM871.358 736.802L842.418 762.608L844.415 764.847L873.354 739.041L871.358 736.802ZM819.295 734.114L842.217 764.629L844.616 762.827L821.694 732.312L819.295 734.114ZM868.264 772.947L840.961 782.226L841.927 785.066L869.229 775.788L868.264 772.947ZM815.74 770.49L840.692 784.944L842.196 782.348L817.244 767.895L815.74 770.49Z" fill="#F6F9F9"/>
    <path d="M580.244 635.682C580.011 631.172 575.973 627.715 571.224 627.96C566.476 628.205 562.815 632.06 563.048 636.57L564.231 659.472C564.313 661.059 562.333 661.958 561.093 660.897L557.59 657.898C553.941 654.774 548.301 655.065 544.993 658.548C541.852 661.856 541.922 666.893 545.153 670.089L556.18 680.997C556.981 681.79 556.277 683.105 555.127 682.961L554.378 682.868C548.685 682.157 543.684 686.537 543.965 691.988C544.212 696.773 547.502 700.917 552.272 702.452L553.317 702.789C567.53 707.364 583.08 706.561 596.746 700.546L597.736 700.11C602.331 698.087 605.182 693.617 604.934 688.823C604.653 683.373 599.238 679.526 593.645 680.801L592.661 681.025C591.51 681.288 590.66 680.03 591.388 679.141L600.931 667.496C603.811 663.982 603.358 658.967 599.894 656.001C596.243 652.876 590.6 653.167 587.29 656.652L584.681 659.4C583.557 660.584 581.495 659.893 581.413 658.306L580.244 635.682Z" fill="#A2CA95"/>
    <path d="M573.742 644.563C573.699 643.736 572.994 643.1 572.167 643.143C571.339 643.185 570.703 643.891 570.746 644.718L573.742 644.563ZM575.542 737.569C575.585 738.396 576.29 739.032 577.118 738.989C577.945 738.946 578.581 738.241 578.538 737.414L575.542 737.569ZM593.134 665.989C593.667 665.355 593.584 664.409 592.95 663.876C592.315 663.343 591.369 663.426 590.837 664.06L593.134 665.989ZM574.38 685.991L573.336 687.067C573.635 687.357 574.041 687.51 574.457 687.489C574.873 687.467 575.261 687.274 575.529 686.955L574.38 685.991ZM556.079 666.156C555.484 665.579 554.534 665.594 553.958 666.188C553.381 666.783 553.395 667.733 553.99 668.31L556.079 666.156ZM593.995 692.035C594.733 691.658 595.024 690.754 594.647 690.017C594.269 689.279 593.365 688.988 592.628 689.365L593.995 692.035ZM575.105 700.023L574.562 701.421C574.961 701.576 575.408 701.553 575.789 701.358L575.105 700.023ZM556.577 691.227C555.805 690.928 554.936 691.311 554.636 692.083C554.337 692.856 554.72 693.725 555.492 694.024L556.577 691.227ZM570.746 644.718L575.542 737.569L578.538 737.414L573.742 644.563L570.746 644.718ZM590.837 664.06L573.231 685.026L575.529 686.955L593.134 665.989L590.837 664.06ZM553.99 668.31L573.336 687.067L575.424 684.914L556.079 666.156L553.99 668.31ZM592.628 689.365L574.421 698.687L575.789 701.358L593.995 692.035L592.628 689.365ZM555.492 694.024L574.562 701.421L575.647 698.624L556.577 691.227L555.492 694.024Z" fill="#F6F9F9"/>
    <path d="M1055.01 640.612C1053.89 631.092 1045.13 624.302 1035.44 625.445C1025.76 626.588 1018.82 635.231 1019.94 644.751L1025.65 693.092C1026.04 696.442 1022.12 698.607 1019.43 696.522L1011.83 690.631C1003.91 684.495 992.41 685.852 986.139 693.663C980.184 701.08 981.048 711.738 988.12 718.081L1012.25 739.732C1014.01 741.306 1012.76 744.182 1010.38 744.029L1008.84 743.929C997.08 743.171 987.472 753.104 988.83 764.61C990.022 774.71 997.349 783.054 1007.33 785.679L1009.52 786.254C1039.27 794.077 1070.98 790.334 1098.09 775.801L1100.05 774.748C1109.17 769.862 1114.36 760.021 1113.17 749.901C1111.81 738.398 1100.18 730.962 1088.91 734.397L1086.93 735.001C1084.61 735.708 1082.69 733.155 1084.05 731.178L1101.92 705.265C1107.31 697.446 1105.66 686.885 1098.15 681.06C1090.22 674.921 1078.72 676.279 1072.44 684.093L1067.49 690.256C1065.36 692.909 1061.04 691.718 1060.65 688.367L1055.01 640.612Z" fill="#94D8B4"/>
    <path d="M1041.91 660.399C1041.78 659.302 1040.79 658.518 1039.69 658.648C1038.59 658.777 1037.81 659.771 1037.94 660.868L1041.91 660.399ZM1061.07 856.859C1061.2 857.956 1062.19 858.74 1063.29 858.611C1064.38 858.481 1065.17 857.487 1065.04 856.39L1061.07 856.859ZM1084.89 702.361C1085.52 701.459 1085.31 700.211 1084.41 699.574C1083.51 698.936 1082.26 699.15 1081.62 700.052L1084.89 702.361ZM1050.22 747.916L1048.9 749.418C1049.33 749.792 1049.89 749.968 1050.46 749.902C1051.02 749.836 1051.53 749.534 1051.86 749.07L1050.22 747.916ZM1009.26 709.232C1008.43 708.503 1007.16 708.584 1006.43 709.414C1005.71 710.243 1005.79 711.507 1006.62 712.236L1009.26 709.232ZM1090.7 757.106C1091.64 756.527 1091.93 755.295 1091.35 754.354C1090.77 753.414 1089.54 753.121 1088.6 753.7L1090.7 757.106ZM1053.72 777.535L1053.1 779.435C1053.66 779.619 1054.27 779.547 1054.77 779.238L1053.72 777.535ZM1014.25 762.475C1013.2 762.131 1012.07 762.702 1011.72 763.752C1011.38 764.801 1011.95 765.931 1013 766.276L1014.25 762.475ZM1037.94 660.868L1061.07 856.859L1065.04 856.39L1041.91 660.399L1037.94 660.868ZM1081.62 700.052L1048.59 746.761L1051.86 749.07L1084.89 702.361L1081.62 700.052ZM1006.62 712.236L1048.9 749.418L1051.54 746.414L1009.26 709.232L1006.62 712.236ZM1088.6 753.7L1052.67 775.832L1054.77 779.238L1090.7 757.106L1088.6 753.7ZM1013 766.276L1053.1 779.435L1054.34 775.635L1014.25 762.475L1013 766.276Z" fill="#F6F9F9"/>
    <path d="M1194.43 511.463C1195.33 498.775 1185.67 487.747 1172.83 486.832C1160 485.916 1148.86 495.46 1147.96 508.148L1143.36 572.577C1143.04 577.043 1137.42 578.889 1134.46 575.504L1126.07 565.937C1117.33 555.972 1102.09 554.885 1092.03 563.509C1082.47 571.697 1080.95 585.805 1088.54 595.83L1114.44 630.047C1116.33 632.534 1113.99 635.971 1110.95 635.182L1108.97 634.668C1093.93 630.761 1079.01 641.321 1077.92 656.657C1076.96 670.118 1084.39 682.814 1096.67 688.716L1099.36 690.009C1135.97 707.594 1177.99 710.592 1216.72 698.381L1219.52 697.497C1232.55 693.391 1241.72 681.854 1242.68 668.366C1243.77 653.034 1230.54 640.452 1215.09 642.131L1212.38 642.426C1209.2 642.772 1207.34 638.968 1209.6 636.729L1239.17 607.388C1248.09 598.534 1248.58 584.359 1240.29 574.899C1231.55 564.929 1216.3 563.842 1206.23 572.47L1198.29 579.273C1194.87 582.203 1189.57 579.577 1189.89 575.112L1194.43 511.463Z" fill="#ADEB9D"/>
    <path d="M1172.9 534.027C1173.02 532.374 1171.78 530.939 1170.12 530.821C1168.47 530.703 1167.04 531.947 1166.92 533.6L1172.9 534.027ZM1148.28 794.82C1148.16 796.472 1149.41 797.908 1151.06 798.025C1152.71 798.143 1154.15 796.899 1154.27 795.246L1148.28 794.82ZM1218.08 599.616C1219.27 598.464 1219.3 596.564 1218.15 595.374C1216.99 594.184 1215.09 594.154 1213.9 595.307L1218.08 599.616ZM1161.61 650.144L1159.24 651.979C1159.76 652.654 1160.54 653.075 1161.4 653.137C1162.25 653.198 1163.09 652.893 1163.7 652.299L1161.61 650.144ZM1118.41 589.341C1117.4 588.03 1115.52 587.788 1114.21 588.802C1112.89 589.815 1112.65 591.699 1113.67 593.01L1118.41 589.341ZM1211.91 672.498C1213.46 671.905 1214.23 670.171 1213.64 668.624C1213.05 667.076 1211.31 666.302 1209.77 666.894L1211.91 672.498ZM1158.8 689.621L1157.34 692.242C1158.11 692.674 1159.04 692.74 1159.87 692.423L1158.8 689.621ZM1111.57 659.889C1110.12 659.083 1108.29 659.603 1107.49 661.05C1106.68 662.498 1107.2 664.325 1108.65 665.131L1111.57 659.889ZM1166.92 533.6L1148.28 794.82L1154.27 795.246L1172.9 534.027L1166.92 533.6ZM1213.9 595.307L1159.52 647.99L1163.7 652.299L1218.08 599.616L1213.9 595.307ZM1113.67 593.01L1159.24 651.979L1163.99 648.31L1118.41 589.341L1113.67 593.01ZM1209.77 666.894L1157.72 686.82L1159.87 692.423L1211.91 672.498L1209.77 666.894ZM1108.65 665.131L1157.34 692.242L1160.25 687L1111.57 659.889L1108.65 665.131Z" fill="#F6F9F9"/>
    <g filter="url(#filter0_d)">
        <path d="M238.295 109.653C248.377 38.8217 78.4978 75.0452 125.28 148.67C-5.90028 155.27 69.3221 189.327 178.786 176.931C115.642 196.535 210.668 209.677 283.153 186.257C401.811 197.838 436.017 148.924 315.542 150.654C344.375 124.536 283.288 69.8664 238.295 109.653Z" fill="#FBF1DF"/>
    </g>
    <g filter="url(#filter1_d)">
        <path d="M1032.88 87.7653C1057.29 86.2 1106.02 109.913 1018.2 103.916C1048.6 115.933 1001.91 117.67 951.303 113.018C994.304 125.928 857.247 128.405 881.272 112.841C815.501 112.675 836.128 99.5141 887.069 99.6428C863.565 84.9392 921.852 67.7268 934.278 82.736C913.762 52.3344 998.841 46.3205 991.188 72.3152C1015.07 56.6094 1063.25 79.9862 1032.88 87.7653Z" fill="#FFD9A8"/>
    </g>
    <path d="M339.286 375.063C339.434 385.726 335.385 398.081 325.834 396.621C316.283 395.16 302.164 382.274 303.618 372.742C305.073 363.21 312.137 357.256 321.798 357.234C331.889 357.21 339.151 365.421 339.286 375.063Z" fill="#E2B496"/>
    <path d="M262.586 487.7C259.091 487.257 256.049 488.369 254.158 491.799C246.609 505.492 241.322 535.852 235.218 566.835C220.036 553.658 175.39 560.137 158.905 563.088C158.156 563.79 157.828 564.619 158.069 565.62C174.324 569.66 225.71 582.661 242.649 589.757C257.197 565.284 285.824 551.425 287.278 513.121C287.611 504.356 273.069 489.028 262.586 487.7Z" fill="url(#paint4_radial)"/>
    <path d="M260.239 477.077C253.731 488.018 250.975 496.044 252.17 504.388C254.164 518.311 269.028 527.646 290.93 532.248C312.832 536.851 323.172 526.158 332.698 505.422C332.845 505.102 332.989 504.771 333.133 504.442C315.534 503.773 293.171 499.242 260.238 477.077L260.239 477.077Z" fill="url(#paint5_radial)"/>
    <path d="M295.884 496.93C271.733 493.316 263.891 512.664 275.433 523.289C290.035 536.731 323.026 543.762 354.072 549.883C339.678 566.41 365.197 616.673 371.447 627.586C372.657 627.749 373.94 628.26 374.803 626.779C375.619 613.84 377.355 555.845 373.156 534.652C357.867 521.181 319.307 500.435 295.884 496.93Z" fill="url(#paint6_radial)"/>
    <path d="M191.03 476.868L205.863 486.784L202.189 492.316C202.798 493.308 204.661 494.596 205.388 494.463L210.956 486.455C211.35 485.889 211.424 484.85 210.565 484.273L192.043 471.96C191.093 471.328 190.355 471.508 189.909 472.095L184.737 478.892C185.24 479.515 186.956 481.321 187.899 481.123L191.03 476.868Z" fill="#412732"/>
    <path d="M400.18 414.031L404.947 408.397C405.273 401.05 406.558 401.42 412.189 395.223C413.958 396.835 413.203 397.295 412.256 399.717C415.281 397.063 417.178 395.395 422.611 394.042C425.75 393.26 426.963 395.566 426.098 399.487C425.052 404.225 422.222 409.685 415.094 412.781C412.362 413.968 410.453 413.916 408.399 414.354L404.907 418.31L400.18 414.031Z" fill="#E2B496"/>
    <path d="M319.92 403.277C335.818 408.019 356.233 417.202 368.119 433.67C377.762 420.3 381.884 424.389 402.394 407.464L408.627 417.466C391.378 438.656 381.785 448.089 365.344 457.478C351.342 449.675 321.507 440.397 308.972 429.474C296.144 418.295 303.368 398.34 319.92 403.277Z" fill="url(#paint7_radial)"/>
    <path d="M211.971 466.909L208.379 472.709C212.361 478.839 213.197 478.305 210.32 483.703C209.257 483.161 208.838 482.753 207.39 482.967C206.613 483.082 205.273 484.387 205.011 486.286C204.749 488.173 202.531 487.835 201.96 487.429C201.379 487.016 201.26 486.642 201.168 485.168C199.677 485.076 197.42 485.907 196.954 484.58L196.565 482.758C194.585 482.288 193.366 482.421 193.123 479.325C190.889 478.797 190.958 476.439 194.134 472.697C197.024 469.293 199.653 468.443 202.934 468.273L205.216 463.608L211.971 466.909Z" fill="#E2B496"/>
    <path d="M308.825 400.781C293.561 398.325 279.053 399.969 272.43 406.593C264.279 414.747 265.475 456.289 267.568 467.263C264.607 470.443 262.203 473.774 260.239 477.077C293.172 499.242 315.534 503.773 333.133 504.442C346.314 474.469 348.012 411.2 319.424 403.126C315.909 402.134 312.347 401.348 308.825 400.781L308.825 400.781Z" fill="url(#paint8_radial)"/>
    <path d="M288.858 425.509C274.862 433.053 257.343 433.737 239.212 430.017C236.806 445.64 221.894 447.105 211.755 470.49L202.067 464.647C213.395 439.611 221.247 423.627 231.197 408.454C250.233 408.272 268.174 401.616 284.091 400.545C300.38 399.45 303.429 417.655 288.858 425.509Z" fill="url(#paint9_radial)"/>
    <path d="M311.464 380.603C310.156 389.176 304.788 399.008 303.29 401.912C301.792 404.817 315.756 410.085 320.66 410.209C325.565 410.332 321.465 393.412 322.65 387.953C323.834 382.494 313.383 374.943 311.464 380.603Z" fill="#E2B496"/>
    <path d="M338.937 364.75C333.517 369.405 329.282 369.384 326.368 368.938C329.349 366.888 327.925 361.813 329.753 361.153C323.601 368.843 321.533 378.101 312.767 377.825C309.165 382.914 309.819 385.834 308.014 386.342C301.625 381.918 295.618 364.706 305.619 362.946C308.95 349.15 335.473 350.925 338.937 364.75Z" fill="#322647"/>
    <path d="M331.952 388.14C328.489 386.752 324.949 384.112 323.572 382.842C322.194 381.571 320.223 387.525 322.538 390.411C324.852 393.296 329.292 392.969 331.203 392.133C333.114 391.297 333.967 389.214 331.952 388.14L331.952 388.14Z" fill="white"/>
    <path d="M319.543 411.605C318.301 424.888 314.379 432.194 306.581 436.882C299.685 441.028 293.084 442.451 287.028 444.184C283.954 445.064 282.093 449.564 277.597 456.397C283.536 459.655 286.64 460.729 290.875 460.75C295.43 460.772 307.191 456.584 315.794 444.401C321.882 435.78 323.963 424.814 322.881 411.332L319.543 411.605Z" fill="#CF4B4B"/>
    <path d="M318.246 411.083L319.653 412.046C320.611 412.412 321.799 412.372 322.633 411.616L323.438 410.52L322.985 408.761L322.072 409.287C321.149 408.76 320.367 408.941 319.61 409.242L318.343 408.993L318.246 411.083Z" fill="#C43636"/>
    <path d="M304.558 398.771C304.289 400.17 308.639 403.16 311.402 404.47C315.025 406.187 319.36 407.238 319.324 407.842C319.235 409.312 319.539 412.25 318.483 412.255C309.694 411.683 304.443 407.43 301.857 403.01C300.322 400.388 303.422 398.209 304.557 398.771L304.558 398.771Z" fill="#D5E3F6"/>
    <path d="M323.13 404.046C323.076 405.682 323.095 406.586 322.533 407.44C321.971 408.294 322.286 408.099 322.987 411.152C323.149 411.854 325.221 409.86 325.26 408.347C325.311 406.318 325.377 404.475 323.13 404.045L323.13 404.046Z" fill="#B7CAE1"/>
    <path d="M377.675 627.891C380.275 628.093 381.613 629.199 384.58 630.842C386.972 630.073 394.318 628.532 395.696 630.684C392.714 633.175 390.76 633.988 386.962 635.385C382.806 636.913 377.291 635.653 377.291 635.653C374.301 636.996 372.092 637.46 371.072 637.426C370.004 635.155 370.098 633.306 370.697 630.663C372.002 629.253 375.603 627.73 377.675 627.891Z" fill="#10111A"/>
    <path d="M153.556 568.06C151.339 569.428 149.605 569.323 146.24 569.742C144.765 571.772 139.748 577.343 137.364 576.415C138.297 572.647 139.394 570.84 141.633 567.474C144.083 563.792 149.278 561.563 149.278 561.563C150.896 558.717 152.405 557.041 153.248 556.468C155.452 557.674 156.47 559.223 157.548 561.711C157.328 563.619 155.323 566.97 153.556 568.06Z" fill="#10111A"/>
    <path d="M163.202 479.707C158.304 485.665 154.23 491.806 150.302 497.977C148.795 500.347 149.559 501.344 150.699 503.299C159.147 517.787 174.119 526.667 188.823 535.777C191.221 537.263 193.339 536.82 194.618 535.53C201.708 528.379 208.674 520.914 214.923 511.614C214.908 511.63 214.895 511.646 214.88 511.662C217.941 506.394 217.204 504.759 214.596 505.488C211.988 506.218 198.979 514.924 196.959 515.946C194.939 516.968 191.791 516.439 190.337 515.631C188.883 514.823 161.463 496.259 161.282 487.424C161.223 484.556 162.042 481.953 163.202 479.707L163.202 479.707Z" fill="#412732"/>
    <path d="M295.636 419.61C294.092 421.841 291.851 423.894 288.857 425.508C282.076 429.163 274.466 431.196 266.362 431.909C266.354 432.025 266.339 432.168 266.331 432.286C266.352 444.657 265.842 456.848 267.567 467.263C264.607 470.443 262.203 473.773 260.238 477.076C261.058 477.628 261.868 478.16 262.675 478.691C264.07 474.91 266.104 471.12 268.452 468.847C272.538 470.592 277.259 471.039 281.216 469.578C276.909 468.171 273.328 466.362 270.205 464.294C274.018 458.336 277.282 446.223 277.802 442.898C275.802 444.049 273.357 444.528 271.405 444.885C278.588 439.841 292.399 430.707 295.636 419.61Z" fill="url(#paint10_linear)"/>
    <path d="M328.542 373.441C328.191 373.364 327.824 373.429 327.521 373.622C327.219 373.815 327.005 374.12 326.928 374.471C326.852 374.821 326.917 375.187 327.111 375.49C327.305 375.792 327.611 376.005 327.962 376.082C328.313 376.159 328.68 376.094 328.982 375.901C329.285 375.708 329.498 375.402 329.575 375.052C329.652 374.702 329.586 374.335 329.393 374.033C329.199 373.731 328.893 373.518 328.542 373.441ZM334.502 374.913C334.192 374.845 333.868 374.902 333.601 375.073C333.334 375.243 333.146 375.513 333.078 375.822C333.01 376.131 333.068 376.454 333.239 376.721C333.41 376.987 333.68 377.175 333.99 377.243C334.299 377.311 334.623 377.254 334.89 377.083C335.157 376.913 335.345 376.644 335.413 376.335C335.481 376.026 335.423 375.702 335.252 375.436C335.081 375.169 334.811 374.981 334.502 374.913Z" fill="#1F1C27"/>
    <path d="M320.379 410.979L319.231 410.893C319.144 411.664 318.951 412.252 318.483 412.254C317.961 412.22 317.454 412.172 316.957 412.113C316.616 417.906 314.358 426.965 309.645 434.725C315.424 430.007 318.476 423.013 319.543 411.604L320.529 411.523C320.461 411.272 320.379 410.979 320.379 410.979ZM283.827 446.702C279.175 447.433 280.18 448.423 275.834 456.403C281.462 461.569 288.785 462.737 294.77 460.115C293.208 460.546 291.864 460.754 290.875 460.749C286.64 460.728 283.536 459.655 277.597 456.397C280.379 452.17 282.151 448.839 283.827 446.702Z" fill="url(#paint11_linear)"/>
    <path d="M236.938 424.827C233.727 443.355 215.697 452.983 208.029 468.243L211.755 470.49C221.894 447.104 236.805 445.64 239.211 430.016C247.861 431.791 256.369 432.561 264.424 432.065C258.585 431.738 247.548 429.744 240.239 426.525C240.212 427.473 240.377 428.139 240.62 429.279C239.461 428.222 238.134 426.531 236.938 424.827Z" fill="url(#paint12_linear)"/>
    <path opacity="0.5" d="M402.393 407.464C381.883 424.389 377.762 420.3 368.119 433.67C358.157 419.868 342.211 411.197 327.947 405.955C331.274 409.55 332.852 411.521 334.789 414.47C347.947 417.968 360.229 425.178 369.261 438.818C369.807 436.332 373.901 429.577 377.265 426.896C380.415 424.384 399.246 415.028 403.748 409.638L402.393 407.464Z" fill="url(#paint13_linear)"/>
    <path d="M407.167 415.123C400.208 428.498 367.827 451.369 364.842 452.994C360.49 451.63 353.911 448.149 348.286 442.923C348.871 439.5 348.044 435.625 346.514 431.937L344.454 438.824C344.516 430.197 344.01 421.454 335.065 417.33C339.144 425.309 341.332 435.765 342.02 446.948C350.943 450.72 359.517 454.229 365.345 457.477C381.786 448.089 391.379 438.656 408.627 417.466L407.167 415.123Z" fill="url(#paint14_linear)"/>
    <path d="M214.88 511.662C217.942 506.394 217.205 504.759 214.596 505.488C211.988 506.218 198.979 514.924 196.959 515.946C194.94 516.968 191.792 516.439 190.337 515.631C188.883 514.823 161.464 496.259 161.282 487.424C161.101 478.59 169.19 472.224 170.208 471.307C171.225 470.391 173.541 470.248 174.806 471.177C176.07 472.107 195.808 488.495 197.904 490.095C200.001 491.696 215.191 502.036 217.132 503.603C219.073 505.169 217.621 508.844 214.88 511.662Z" fill="#412732"/>
    <path d="M260.239 477.076C259.832 477.76 259.44 478.432 259.062 479.094C259.062 479.095 259.062 479.095 259.062 479.095C258.685 479.757 258.323 480.408 257.975 481.049C257.975 481.049 257.975 481.05 257.975 481.05C257.279 482.333 256.643 483.576 256.065 484.786C256.065 484.787 256.065 484.787 256.065 484.788C254.911 487.209 253.993 489.498 253.317 491.706C253.316 491.706 253.316 491.707 253.316 491.707C252.978 492.811 252.7 493.895 252.482 494.964C252.482 494.965 252.482 494.965 252.482 494.966C252.373 495.5 252.28 496.031 252.202 496.559C252.202 496.56 252.202 496.56 252.202 496.561C252.123 497.089 252.06 497.615 252.012 498.139C252.012 498.139 252.012 498.139 252.012 498.14C251.964 498.664 251.931 499.186 251.914 499.706C251.914 499.707 251.914 499.707 251.913 499.708C251.896 500.228 251.894 500.748 251.907 501.267C251.907 501.268 251.907 501.268 251.907 501.269C251.934 502.308 252.021 503.345 252.171 504.388C252.229 504.798 252.3 505.204 252.381 505.606C252.413 505.763 252.452 505.918 252.487 506.075C252.54 506.309 252.593 506.544 252.653 506.776C252.705 506.974 252.762 507.169 252.819 507.365C252.875 507.558 252.932 507.75 252.993 507.942C253.053 508.131 253.118 508.318 253.184 508.505C253.257 508.714 253.332 508.922 253.412 509.128C253.477 509.296 253.544 509.464 253.614 509.631C253.698 509.836 253.788 510.039 253.879 510.241C253.959 510.419 254.039 510.599 254.125 510.776C254.214 510.96 254.309 511.142 254.403 511.324C254.496 511.503 254.586 511.683 254.683 511.86C254.792 512.057 254.907 512.252 255.021 512.446C255.115 512.606 255.206 512.766 255.304 512.924C255.515 513.264 255.736 513.601 255.966 513.933C256.072 514.087 256.187 514.238 256.298 514.391C256.423 514.564 256.546 514.738 256.677 514.909C256.827 515.105 256.984 515.297 257.141 515.491C257.255 515.631 257.367 515.772 257.485 515.911C257.63 516.084 257.78 516.255 257.931 516.425C258.067 516.578 258.203 516.73 258.343 516.881C258.504 517.056 258.669 517.229 258.836 517.401C258.967 517.537 259.1 517.671 259.235 517.805C259.408 517.977 259.584 518.149 259.763 518.319C259.913 518.461 260.067 518.602 260.221 518.743C260.4 518.905 260.578 519.069 260.762 519.229C260.902 519.351 261.048 519.471 261.191 519.592C261.4 519.769 261.607 519.946 261.823 520.12C261.922 520.2 262.026 520.278 262.127 520.357C262.637 520.76 263.163 521.154 263.707 521.54C263.799 521.606 263.887 521.673 263.98 521.738C264.29 521.954 264.608 522.166 264.929 522.378C264.994 522.42 265.057 522.464 265.123 522.507C265.427 522.705 265.739 522.9 266.053 523.094C266.159 523.16 266.264 523.226 266.371 523.291C266.67 523.473 266.974 523.651 267.282 523.828C267.405 523.9 267.527 523.971 267.652 524.042C267.96 524.217 268.272 524.389 268.588 524.56C268.708 524.624 268.828 524.689 268.949 524.753C269.289 524.934 269.633 525.112 269.983 525.288C270.07 525.332 270.158 525.375 270.246 525.419C270.607 525.599 270.971 525.778 271.342 525.953C271.428 525.994 271.516 526.033 271.602 526.073C273.363 526.896 275.224 527.667 277.182 528.384C277.665 528.561 278.155 528.734 278.65 528.905C278.69 528.919 278.73 528.933 278.771 528.947C279.232 529.105 279.699 529.261 280.17 529.413C280.239 529.436 280.309 529.458 280.378 529.481C281.42 529.815 282.484 530.136 283.571 530.443C264.824 523.754 251.424 513.706 255.94 491.119C255.702 492.207 255.714 496.607 257.693 499.485C256.973 493.79 257.502 488.146 260.793 481.942C263.013 482.981 280.475 491.752 289.602 493.749C281.143 489.924 271.806 484.771 261.408 477.852C261.017 477.592 260.632 477.341 260.239 477.076Z" fill="url(#paint15_linear)"/>
    <path d="M313.076 501.465C331.557 511.622 367.265 529.84 368.156 534.513C364.827 532.751 362.2 531.848 358.912 531.058C363.397 534.807 368.589 539.904 371.339 544.193C372.351 545.771 373.744 549.028 375.101 552.507C374.679 545.408 374.054 539.184 373.156 534.652C361.22 524.135 335.103 509.185 313.076 501.465Z" fill="url(#paint16_linear)"/>
    <path d="M252.413 495.357C245.772 510.301 240.84 538.298 235.219 566.835C221.334 554.783 182.867 559.169 163.774 562.265C179.232 562.554 210.413 558.476 229.266 566.877C233.242 568.649 235.635 569.526 237.335 572.164C239.757 554.189 244.555 534.93 250.686 519.149C255.268 523.287 272.678 529.276 283.246 530.353C265.596 525.301 253.921 516.613 252.17 504.387C251.741 501.387 251.83 498.426 252.413 495.357Z" fill="url(#paint17_linear)"/>
    <path d="M161.325 486.061C160.533 489.173 161.274 490.522 162.126 493.548C165.993 501.422 186.282 519.144 193.82 517.922C201.359 516.699 209.568 509.039 212.352 507.923C215.136 506.807 214.474 511.796 210.261 516.254C208.158 518.48 197.372 528.201 195.066 529.767C192.76 531.334 191.295 531.702 188.164 531.245C185.034 530.788 172.235 522.333 168.28 519.852C164.324 517.371 155.064 506.47 152.561 503.156C150.659 500.638 149.997 500.989 150.052 502.167C150.243 502.521 150.456 502.881 150.7 503.299C159.148 517.787 174.119 526.667 188.824 535.777C191.222 537.263 193.34 536.82 194.619 535.53C201.709 528.379 208.675 520.914 214.924 511.614C214.909 511.63 214.895 511.646 214.88 511.662C217.941 506.394 217.205 504.759 214.597 505.488C211.988 506.218 198.979 514.924 196.96 515.946C194.94 516.968 191.792 516.439 190.338 515.631C188.883 514.823 161.464 496.259 161.283 487.424C161.273 486.962 161.291 486.509 161.325 486.061L161.325 486.061Z" fill="url(#paint18_linear)"/>
    <path d="M161.781 483.343C161.781 483.345 161.78 483.348 161.78 483.35C161.696 483.668 161.621 483.99 161.557 484.316C161.556 484.325 161.555 484.333 161.553 484.341C161.497 484.626 161.452 484.916 161.412 485.208C161.4 485.301 161.39 485.394 161.379 485.487C161.353 485.713 161.333 485.941 161.317 486.17C161.31 486.269 161.302 486.367 161.298 486.467C161.283 486.783 161.276 487.101 161.283 487.424C161.464 496.259 188.883 514.823 190.337 515.631C191.792 516.439 194.94 516.968 196.959 515.946C197.212 515.818 197.636 515.569 198.189 515.232C198.744 514.895 199.428 514.469 200.2 513.983C202.517 512.526 205.627 510.539 208.402 508.848C209.327 508.284 210.215 507.754 211.024 507.287C211.833 506.819 212.563 506.415 213.172 506.106C213.477 505.951 213.752 505.82 213.991 505.715C214.23 505.611 214.433 505.534 214.596 505.488C215.575 505.215 216.289 505.274 216.639 505.732C216.698 505.809 216.746 505.895 216.784 505.995C216.822 506.093 216.848 506.204 216.864 506.326C216.896 506.57 216.884 506.862 216.824 507.202C216.763 507.542 216.654 507.931 216.494 508.372C216.253 509.034 215.896 509.813 215.41 510.716C215.41 510.716 215.41 510.717 215.41 510.717C215.248 511.018 215.071 511.333 214.88 511.662C215.078 511.458 215.268 511.25 215.452 511.038C215.489 510.996 215.524 510.952 215.56 510.909C215.697 510.749 215.829 510.586 215.957 510.423C216.009 510.356 216.059 510.288 216.11 510.221C216.231 510.059 216.348 509.895 216.459 509.731C216.493 509.683 216.527 509.634 216.559 509.585C216.689 509.388 216.813 509.191 216.927 508.993C216.939 508.973 216.952 508.953 216.964 508.932C217.227 508.472 217.448 508.013 217.617 507.565C217.701 507.343 217.772 507.125 217.83 506.91C217.832 506.901 217.835 506.892 217.837 506.882C217.894 506.668 217.94 506.457 217.969 506.251C217.955 505.919 217.867 505.555 217.695 505.218L217.958 505.016C217.848 504.456 217.587 503.969 217.132 503.603C215.948 502.647 209.977 498.524 204.912 495.014C205.301 495.522 206.055 496.438 206.996 497.182C208.352 498.254 213.051 501.566 214.54 502.585C213.957 502.457 213.455 502.51 212.925 502.882C213.791 503.098 214.675 503.381 215.633 503.959C215.091 503.942 214.444 504.061 213.682 504.375C210.879 505.532 205.262 509.809 199.783 513.212C194.305 516.615 193.208 515.84 187.401 512.348C183.275 509.867 171.206 501.469 164.484 492.348C162.492 489.646 161.721 487.191 161.781 483.343L161.781 483.343Z" fill="url(#paint19_linear)"/>
    <path opacity="0.5" d="M173.697 470.677C172.464 470.368 170.971 470.62 170.208 471.307C169.397 472.038 164.098 476.232 162.07 482.376C162.253 484.314 162.653 486.408 163.109 488.396C164.151 492.94 170.286 498.441 172.531 500.482C174.776 502.522 178.617 506.092 181.6 507.967C178.449 505.18 173.259 499.63 167.88 494.167C164.811 491.05 162.833 484.234 163.956 480.979C165.079 477.724 169.015 474.14 170.472 473.076C171.93 472.012 173.304 472.069 174.749 472.549C176.194 473.03 183.786 480.072 188.522 482.66L187.31 481.426C181.522 476.656 175.491 471.681 174.806 471.178C174.49 470.945 174.108 470.78 173.697 470.677Z" fill="url(#paint20_linear)"/>
    <path opacity="0.5" d="M161.252 482.146C157.298 487.213 153.865 492.395 150.546 497.601C150.332 499.905 151.316 501.224 153.031 503.445C155.001 505.995 161.879 514.428 160.819 512.566C159.76 510.705 154.784 504.459 153.068 501.417C151.637 498.878 152.071 497.323 153.494 494.834C155.629 491.102 156.996 489.292 158.959 486.67C158.936 487.519 159.586 488.273 160.562 489.22C160.571 487.294 160.578 485.485 161.252 482.146Z" fill="url(#paint21_linear)"/>
    <path opacity="0.5" d="M161.141 494.561C167.604 504.752 177.409 510.564 187.048 517.411C175.407 515.794 173.889 513.905 164.844 507.121C166.461 512.617 169.838 514.816 174.191 518.157C164.299 514.688 165.892 513.429 161.144 504.004C166.606 508.159 172.145 511.313 178.566 513.475C167.868 507.267 167.215 504.811 161.141 494.561Z" fill="url(#paint22_linear)"/>
    <path opacity="0.5" d="M201.552 494.456C191.761 488.877 184.298 482.163 175.715 474.961C176.914 491.809 192.077 496.964 199.199 500.964C192.517 502.228 187.402 505.673 173.955 496.109C183.896 507.105 194.638 505.106 202.687 502.421C191.204 494.098 182.892 486.768 177.971 477.299C185.562 486.615 194.13 492.203 201.552 494.456Z" fill="url(#paint23_linear)"/>
    <path d="M209.731 512.423C204.277 515.716 197.322 520.061 195.219 520.175C193.117 520.289 188.755 520.713 188.755 520.713C188.755 520.713 193.381 522.766 194.444 522.654C195.507 522.542 197.462 522.05 198.694 521.169C197.148 523.478 192.781 526.549 191.707 527.235C190.633 527.92 186.625 528.306 184.609 528.554C187.364 530.196 190.508 531.117 193.657 529.39C196.806 527.664 201.8 521.736 203.201 520.086C201.223 520.688 200.27 520.824 200.27 520.824C200.27 520.824 204.516 518.302 206.065 517.03C207.614 515.758 209.731 512.423 209.731 512.423Z" fill="url(#paint24_linear)"/>
    <path d="M189.385 511.393C188.72 511.963 186.898 515.308 186.3 515.822C185.701 516.336 185.907 516.324 186.117 516.584C186.328 516.844 187.839 517.683 188.296 517.867C188.753 518.051 188.854 517.416 189.065 517.031C189.276 516.646 191.263 513.684 191.798 513.041C192.175 512.588 191.72 512.552 191.079 512.175C189.868 511.464 189.716 511.11 189.385 511.393L189.385 511.393Z" fill="#1C1115"/>
    <path d="M164.278 488.766C163.459 489.05 161.021 491.441 160.324 491.812C159.627 492.182 159.83 492.215 159.979 492.515C160.128 492.815 161.078 493.798 161.484 494.077C161.889 494.357 162.127 493.76 162.417 493.43C162.708 493.101 164.952 491.168 165.7 490.793C166.009 490.638 165.798 490.381 165.561 490.026C165.157 489.42 164.677 488.653 164.278 488.766L164.278 488.766Z" fill="#1C1115"/>
    <path opacity="0.3" d="M322.881 411.331L322.839 411.335L322.632 411.615C321.804 412.366 320.628 412.41 319.675 412.053C320.588 412.654 321.721 412.63 322.186 412.419C322.084 412.886 321.864 413.097 321.602 413.241C322.03 413.393 322.501 413.352 322.631 413.15C322.671 428.523 320.532 433.53 317.517 438.893C313.131 446.694 306.863 453.095 298.863 456.142C294.719 456.028 291.644 454.707 288.136 452.788C289.339 455.79 290.221 456.694 293.072 457.684C289.695 458.57 287.063 457.257 284.766 455.352C283.424 456.545 282.246 456.916 280.552 457.158C279.581 456.94 278.602 456.694 277.601 456.389C277.599 456.392 277.599 456.394 277.597 456.397C283.536 459.655 286.64 460.728 290.875 460.749C295.43 460.772 307.191 456.585 315.794 444.402C321.882 435.78 323.963 424.813 322.88 411.331L322.881 411.331Z" fill="url(#paint25_linear)"/>
    <path d="M319.395 412.961C318.014 425.379 314.106 432.358 306.581 436.882C299.685 441.028 293.084 442.451 287.028 444.184C284.406 444.934 282.654 448.336 279.41 453.553C281.929 450.617 283.643 447.821 285.484 446.512C286.691 445.474 288.376 445.233 290.984 444.504C293.592 443.774 307.383 438.715 309.868 437.062C311.074 437.179 312.001 437.268 313.693 436.483C312.819 436.414 312.081 436.128 311.263 435.767C312.781 435.651 314.642 434.965 316.753 432.446C315.072 433.165 314.028 433.574 313.163 433.575C316.652 427.862 320.323 419.087 319.395 412.961Z" fill="url(#paint26_linear)" fill-opacity="0.476923"/>
    <path opacity="0.5" d="M304.323 398.696C303.66 398.585 302.624 399.099 301.991 399.963C296.257 399.501 290.804 399.671 286.023 400.518C285.399 400.5 284.76 400.5 284.091 400.545C268.174 401.615 250.233 408.272 231.198 408.453C221.248 423.626 213.396 439.61 202.068 464.647L202.233 464.746C212.419 449.118 218.908 427.061 231.648 412.988C232.966 413.023 234.455 414.5 235.389 415.1C235.394 413.653 234.947 412.234 233.918 410.851C239.445 410.396 244.76 410.908 250.112 411.245C247.758 410.311 245.13 409.589 241.901 409.332C259.999 407.899 277.899 401.717 296.208 405.339L293.828 402.744C295.78 403.063 296.987 403.707 297.687 404.573C298.878 403.568 300.545 403.381 302.558 403.789C303.178 401.606 304.193 401.241 305.351 400.299C304.812 399.712 304.481 399.172 304.558 398.77L304.556 398.77C304.486 398.735 304.408 398.711 304.323 398.696L304.323 398.696Z" fill="url(#paint27_linear)"/>
    <path d="M425.539 386.975C425.41 386.947 425.279 386.932 425.147 386.931L414.619 386.85C413.026 386.838 412.89 388.135 412.844 389.057L412.522 395.561C413.778 396.868 413.164 397.475 412.324 399.558L411.835 409.425C411.732 411.51 412.981 411.758 413.981 411.769L424.115 411.881C426.066 411.903 426.096 411.004 426.134 410.207L427.158 389.256C427.219 387.995 426.44 387.167 425.539 386.975Z" fill="#373E48"/>
    <path d="M425.687 389.102C425.596 389.088 425.494 389.081 425.38 389.082L414.541 389.175C413.622 389.183 413.479 389.7 413.443 390.493L413.169 396.468C413.311 396.853 413.268 397.219 413.114 397.666L412.649 407.793C412.588 409.118 412.601 409.145 414.11 409.144L424.509 409.135C425.436 409.134 425.451 409.221 425.498 408.325L426.454 390.058C426.476 389.642 426.33 389.2 425.687 389.102L425.687 389.102Z" fill="#FFAA06"/>
    <path d="M152.773 551.762C155.24 551.159 160.869 546.212 160.607 543.69C160.066 538.466 152.807 533.859 147.617 534.723C143.747 535.368 139.472 540.448 140.649 544.185C142.202 549.116 147.744 552.991 152.773 551.762Z" fill="#F6F9F9"/>
    <path d="M323.914 623.8C318.23 622.741 312.316 615.915 313.159 610.208C313.94 604.928 321.011 600.411 326.321 601.06C332.508 601.816 339.629 608.959 338.649 615.1C337.752 620.726 329.528 624.845 323.914 623.8Z" fill="#F6F9F9"/>
    <path d="M301.899 603.348C299.86 602.026 297.828 598.892 298.897 596.715C300.014 594.441 304.056 593.773 306.305 594.952C308.983 596.356 311.299 600.912 309.584 603.395C308.131 605.499 304.047 604.743 301.899 603.348Z" fill="#F6F9F9"/>
    <path d="M120.821 545.541C120.805 540.618 113.333 532.947 104.878 531.559C93.0717 529.62 80.5121 536.619 81.9392 543.663C82.9798 548.799 94.369 555.073 102.9 555.735C112.363 556.47 120.84 551.101 120.821 545.541Z" fill="#F6F9F9"/>
    <path d="M59.0889 527.377C57.3175 532.35 47.7279 531.852 43.2998 528.96C40.0853 526.86 37.5294 521.128 39.7644 518.015C41.6609 515.372 46.5171 516.643 49.5386 517.864C53.7073 519.548 60.5943 523.152 59.0889 527.377Z" fill="#F6F9F9"/>
    <path d="M0 910.841C122.783 763.978 455.718 725.321 711 803.807C1303 985.816 1608.82 607.553 1323 0L1440 0V1024H0V910.841Z" fill="#F2EFE0"/>
    <path fill-rule="evenodd" clip-rule="evenodd" d="M0 601.979V569.166C103.738 565.877 234.086 590.909 297.561 636.944C371.662 690.686 290.786 767.361 201.018 703.53C138.367 658.98 72.6075 622.163 0 601.979Z" fill="#EDEDED"/>
    <path d="M1114.2 0C1145 66.0909 1171.19 129.722 1194.35 186.868C1237.94 294.379 1352.65 246.173 1315.37 117.236C1303.66 76.7178 1278.35 38.2074 1242.73 0H1114.2Z" fill="url(#paint28_radial)"/>
    <defs>
    <filter id="filter0_d" x="7.39893" y="44.6464" width="416.746" height="212.223" filterUnits="userSpaceOnUse" color-interpolation-filters="sRGB">
    <feFlood flood-opacity="0" result="BackgroundImageFix"/>
    <feColorMatrix in="SourceAlpha" type="matrix" values="0 0 0 0 0 0 0 0 0 0 0 0 0 0 0 0 0 0 127 0"/>
    <feOffset dx="-7" dy="16"/>
    <feGaussianBlur stdDeviation="20"/>
    <feColorMatrix type="matrix" values="0 0 0 0 0.945098 0 0 0 0 0.0666667 0 0 0 0 0.27451 0 0 0 0.25 0"/>
    <feBlend mode="normal" in2="BackgroundImageFix" result="effect1_dropShadow"/>
    <feBlend mode="normal" in="SourceGraphic" in2="effect1_dropShadow" result="shape"/>
    </filter>
    <filter id="filter1_d" x="788.812" y="27.6132" width="320.83" height="160.387" filterUnits="userSpaceOnUse" color-interpolation-filters="sRGB">
    <feFlood flood-opacity="0" result="BackgroundImageFix"/>
    <feColorMatrix in="SourceAlpha" type="matrix" values="0 0 0 0 0 0 0 0 0 0 0 0 0 0 0 0 0 0 127 0"/>
    <feOffset dx="-5" dy="18"/>
    <feGaussianBlur stdDeviation="23"/>
    <feColorMatrix type="matrix" values="0 0 0 0 0.945098 0 0 0 0 0.0666667 0 0 0 0 0.27451 0 0 0 0.25 0"/>
    <feBlend mode="normal" in2="BackgroundImageFix" result="effect1_dropShadow"/>
    <feBlend mode="normal" in="SourceGraphic" in2="effect1_dropShadow" result="shape"/>
    </filter>
    <radialGradient id="paint0_radial" cx="0" cy="0" r="1" gradientUnits="userSpaceOnUse" gradientTransform="translate(-207.401 -134.61) rotate(35.2301) scale(2071.43 3056.12)">
    <stop offset="0.328416" stop-color="#FFAA06"/>
    <stop offset="1" stop-color="#FF7121"/>
    </radialGradient>
    <linearGradient id="paint1_linear" x1="307.167" y1="446.745" x2="160.74" y2="678" gradientUnits="userSpaceOnUse">
    <stop stop-color="#F3CD6B"/>
    <stop offset="1" stop-color="#F1A873"/>
    </linearGradient>
    <linearGradient id="paint2_linear" x1="987.534" y1="516.185" x2="816.954" y2="873.949" gradientUnits="userSpaceOnUse">
    <stop stop-color="#F3CD6B"/>
    <stop offset="1" stop-color="#F1A873"/>
    </linearGradient>
    <linearGradient id="paint3_linear" x1="726" y1="611.287" x2="573.916" y2="792.433" gradientUnits="userSpaceOnUse">
    <stop stop-color="#F3CD6B"/>
    <stop offset="1" stop-color="#F1A873"/>
    </linearGradient>
    <radialGradient id="paint4_radial" cx="0" cy="0" r="1" gradientUnits="userSpaceOnUse" gradientTransform="translate(219.6 555.442) rotate(27.3644) scale(51.7718 75.5716)">
    <stop stop-color="#3281DC"/>
    <stop offset="1" stop-color="#2467A2" stop-opacity="0.984314"/>
    </radialGradient>
    <radialGradient id="paint5_radial" cx="0" cy="0" r="1" gradientUnits="userSpaceOnUse" gradientTransform="translate(252.285 481.223) rotate(12.3905) scale(101.549 59.4463)">
    <stop stop-color="#2D90E5"/>
    <stop offset="1" stop-color="#1966CA"/>
    </radialGradient>
    <radialGradient id="paint6_radial" cx="0" cy="0" r="1" gradientUnits="userSpaceOnUse" gradientTransform="translate(307.923 507.666) rotate(21.6989) scale(84.3015 55.7744)">
    <stop stop-color="#2D90E5"/>
    <stop offset="1" stop-color="#1966CA"/>
    </radialGradient>
    <radialGradient id="paint7_radial" cx="0" cy="0" r="1" gradientUnits="userSpaceOnUse" gradientTransform="translate(346.715 424.926) rotate(-8.189) scale(102.862 41.5394)">
    <stop stop-color="#E3EEFC"/>
    <stop offset="1" stop-color="#B3CAE9" stop-opacity="0.972549"/>
    </radialGradient>
    <radialGradient id="paint8_radial" cx="0" cy="0" r="1" gradientUnits="userSpaceOnUse" gradientTransform="translate(306.721 420.069) rotate(12.3905) scale(77.5149 208.721)">
    <stop stop-color="#E3EEFC"/>
    <stop offset="1" stop-color="#B3CAE9" stop-opacity="0.972549"/>
    </radialGradient>
    <radialGradient id="paint9_radial" cx="0" cy="0" r="1" gradientUnits="userSpaceOnUse" gradientTransform="translate(269.281 411.465) rotate(-2.58376) scale(200.74 92.4111)">
    <stop stop-color="#E3EEFC"/>
    <stop offset="1" stop-color="#B3CAE9" stop-opacity="0.972549"/>
    </radialGradient>
    <linearGradient id="paint10_linear" x1="-52.7643" y1="319.489" x2="-52.7641" y2="319.489" gradientUnits="userSpaceOnUse">
    <stop stop-color="#919BC5" stop-opacity="0.152941"/>
    </linearGradient>
    <linearGradient id="paint11_linear" x1="-52.7645" y1="319.488" x2="-52.7641" y2="319.489" gradientUnits="userSpaceOnUse">
    <stop stop-color="#919BC5" stop-opacity="0.152941"/>
    </linearGradient>
    <linearGradient id="paint12_linear" x1="-52.7656" y1="319.489" x2="-52.765" y2="319.489" gradientUnits="userSpaceOnUse">
    <stop stop-color="#919BC5" stop-opacity="0.152941"/>
    </linearGradient>
    <linearGradient id="paint13_linear" x1="327.011" y1="410.22" x2="400.095" y2="426.272" gradientUnits="userSpaceOnUse">
    <stop stop-color="white" stop-opacity="0.32549"/>
    </linearGradient>
    <linearGradient id="paint14_linear" x1="-52.764" y1="319.488" x2="-52.7631" y2="319.489" gradientUnits="userSpaceOnUse">
    <stop stop-color="#919BC5" stop-opacity="0.152941"/>
    </linearGradient>
    <linearGradient id="paint15_linear" x1="-52.6511" y1="319.529" x2="-52.6503" y2="319.529" gradientUnits="userSpaceOnUse">
    <stop stop-color="#283F59" stop-opacity="0.356863"/>
    </linearGradient>
    <linearGradient id="paint16_linear" x1="-72.6183" y1="312.344" x2="-72.6169" y2="312.344" gradientUnits="userSpaceOnUse">
    <stop stop-color="white" stop-opacity="0.32549"/>
    </linearGradient>
    <linearGradient id="paint17_linear" x1="-72.6187" y1="312.343" x2="-72.6172" y2="312.344" gradientUnits="userSpaceOnUse">
    <stop stop-color="#283F59" stop-opacity="0.356863"/>
    </linearGradient>
    <linearGradient id="paint18_linear" x1="-38.1592" y1="331.088" x2="-33.6207" y2="332.085" gradientUnits="userSpaceOnUse">
    <stop stop-color="#21171D" stop-opacity="0.188235"/>
    </linearGradient>
    <linearGradient id="paint19_linear" x1="-37.6069" y1="331.012" x2="-33.5167" y2="331.911" gradientUnits="userSpaceOnUse">
    <stop stop-color="#21171D" stop-opacity="0.188235"/>
    </linearGradient>
    <linearGradient id="paint20_linear" x1="-52.7656" y1="319.489" x2="-52.7653" y2="319.49" gradientUnits="userSpaceOnUse">
    <stop stop-color="#919BC5" stop-opacity="0.152941"/>
    </linearGradient>
    <linearGradient id="paint21_linear" x1="-52.7661" y1="319.489" x2="-52.7659" y2="319.489" gradientUnits="userSpaceOnUse">
    <stop stop-color="#919BC5" stop-opacity="0.152941"/>
    </linearGradient>
    <linearGradient id="paint22_linear" x1="-53.0381" y1="319.395" x2="-53.0378" y2="319.395" gradientUnits="userSpaceOnUse">
    <stop stop-color="#919BC5" stop-opacity="0.152941"/>
    </linearGradient>
    <linearGradient id="paint23_linear" x1="-53.0385" y1="319.395" x2="-53.0382" y2="319.395" gradientUnits="userSpaceOnUse">
    <stop stop-color="#919BC5" stop-opacity="0.152941"/>
    </linearGradient>
    <linearGradient id="paint24_linear" x1="-35.5454" y1="332.796" x2="-34.1042" y2="333.112" gradientUnits="userSpaceOnUse">
    <stop stop-color="#21171D" stop-opacity="0.188235"/>
    </linearGradient>
    <linearGradient id="paint25_linear" x1="-52.2209" y1="317.474" x2="-52.2094" y2="317.476" gradientUnits="userSpaceOnUse">
    <stop stop-color="#283F59" stop-opacity="0.356863"/>
    </linearGradient>
    <linearGradient id="paint26_linear" x1="-33.133" y1="238.635" x2="-32.9801" y2="238.668" gradientUnits="userSpaceOnUse">
    <stop stop-color="white" stop-opacity="0.32549"/>
    </linearGradient>
    <linearGradient id="paint27_linear" x1="-137.974" y1="57.6185" x2="-137.557" y2="57.7101" gradientUnits="userSpaceOnUse">
    <stop stop-color="white" stop-opacity="0.32549"/>
    </linearGradient>
    <radialGradient id="paint28_radial" cx="0" cy="0" r="1" gradientUnits="userSpaceOnUse" gradientTransform="translate(1165.41 -68.1139) rotate(66.4417) scale(375.473 584.222)">
    <stop stop-color="#FF7121"/>
    <stop offset="1" stop-color="#FFAA06"/>
    </radialGradient>
    </defs>
</svg>
