<svg width="235" height="84" viewBox="0 0 235 84" fill="none" xmlns="http://www.w3.org/2000/svg">
    <path d="M56.8746 8.27456C56.5589 7.96285 56.1278 7.76565 55.6589 7.75905L55.6586 7.75868C54.7406 7.74611 54.0291 8.47112 54.0696 9.37912L54.1927 13.5168C53.6592 13.4529 53.1198 13.4111 52.5752 13.3954C48.0103 13.263 43.8996 14.8825 40.8645 17.6337L32.2406 17.3837C16.4234 16.9251 7.60368 31.1535 7.60368 31.1535L6.97546 32.0694L7.65923 33.0247C7.65923 33.0247 12.5238 39.8672 20.1419 44.9188C18.0639 54.6415 22.487 58.7024 20.9167 62.4673C20.9163 62.4676 20.9159 62.468 20.9167 62.4683H20.9175L20.9179 62.4679C24.7287 60.9161 28.8388 65.2862 38.68 63.233C43.7929 70.7597 50.7186 75.5658 50.7186 75.5658L51.6854 76.2413L52.6125 75.6208C52.6125 75.6208 67.0138 66.9068 66.5497 51.2796L66.2967 42.7594C69.0814 39.7606 70.7205 35.6993 70.5864 31.1891C70.5705 30.651 70.5284 30.1182 70.4636 29.591L74.6515 29.7128C75.5705 29.7526 76.3045 29.0499 76.2917 28.1429L76.2913 28.1425C76.28 27.6805 76.0861 27.2557 75.7722 26.9439C75.4569 26.6336 75.0267 26.4366 74.5591 26.4296L69.7342 26.2897C68.8127 23.4609 67.1971 20.9056 65.0964 18.8301C65.0964 18.8322 65.0964 18.8343 65.0828 18.8291L65.0942 18.8238C62.9934 16.7483 60.4072 15.1522 57.5439 14.2416L57.4022 9.47474C57.3908 9.01146 57.1947 8.58525 56.879 8.2736L56.8746 8.27456ZM62.8235 21.0637C62.8235 21.0658 62.8235 21.068 62.8235 21.0766C64.6931 22.9237 66.084 25.2437 66.7762 27.8193C66.7762 28.0662 66.8387 28.3118 66.9498 28.5392C67.128 29.3718 67.2383 30.2276 67.2642 31.1008V31.104C67.3793 34.9783 65.9026 38.431 63.4169 40.8872L63.4055 40.8766L63.1129 41.1649C60.6485 43.45 57.2752 44.7961 53.5055 44.6868C49.5825 44.5731 45.9933 42.9084 43.3566 40.3029C43.3559 40.3036 43.3566 40.3039 43.3566 40.305V40.3029C40.7196 37.6978 39.0346 34.1518 38.9194 30.2758C38.8092 26.5515 40.1713 23.2187 42.4841 20.7838L42.7759 20.4947L42.7646 20.4884C45.2506 18.0326 48.7454 16.5737 52.6668 16.6873V16.6839C53.5506 16.7095 54.4164 16.8182 55.2593 16.9944C55.4895 17.1043 55.7382 17.163 55.9882 17.166C58.595 17.85 60.943 19.224 62.8124 21.071L62.8235 21.0637ZM48.9508 24.8325C48.5455 24.4322 47.9938 24.1758 47.393 24.1584C46.1916 24.1237 45.2466 25.0578 45.2819 26.2448C45.3172 27.4316 46.3198 28.422 47.5211 28.457C48.7224 28.4919 49.6675 27.558 49.6324 26.371C49.6154 25.7774 49.356 25.233 48.9508 24.8325V24.8325ZM59.0089 34.7699C58.6037 34.3696 58.0523 34.1136 57.4515 34.0962C56.2502 34.0616 55.3046 34.9952 55.3401 36.1822C55.3753 37.369 56.3779 38.3593 57.5792 38.3944C58.7805 38.4293 59.726 37.4957 59.6909 36.3087C59.6738 35.7151 59.4142 35.1704 59.0089 34.7699ZM37.6024 20.824L35.8536 22.5517C32.2297 26.1034 29.69 28.6269 26.0742 32.1994C23.126 35.1121 22.0343 37.9487 20.9436 41.5839C15.4561 37.7406 12.0364 33.3576 11.1366 32.1716C12.9629 29.772 20.2878 20.319 32.3346 20.6683L37.6024 20.824ZM63.0662 45.9821L63.2238 51.1867C63.5773 63.0887 54.0093 70.3256 51.5807 72.13C50.3802 71.241 45.944 67.8625 42.054 62.4407C45.7333 61.3633 48.6044 60.2845 51.5525 57.3717C55.1684 53.7993 57.7225 51.2902 61.3174 47.7097L63.0662 45.9821ZM35.7242 27.4595C35.6081 28.3414 35.5603 29.2476 35.5878 30.1725C35.7292 34.9365 37.8211 39.3154 41.083 42.538V42.5338C41.083 42.5348 41.083 42.5359 41.083 42.538C44.3449 45.7608 48.7769 47.8276 53.5989 47.9674C54.5351 47.9945 55.4521 47.9472 56.3448 47.8324L51.468 52.6507C46.8356 51.6154 42.0129 49.3928 38.0754 45.505C34.1404 41.6145 31.8904 36.8498 30.8426 32.2729C32.3914 30.7427 33.8506 29.301 35.7194 27.4547L35.7242 27.4595ZM27.4822 35.705C28.7864 40.1252 31.1953 44.3256 35.2367 48.3196C39.2789 52.3123 43.5303 54.6924 48.0039 55.9809C46.9 56.8902 45.7126 57.6335 44.4757 58.2409C39.7877 58.2161 35.2764 54.8667 31.7595 51.7551C28.6096 48.2798 25.2193 43.822 25.1956 39.1895C25.8103 37.9679 26.5623 36.7952 27.4822 35.705ZM23.1506 45.3866C24.2937 48.6855 26.1477 51.8286 28.9161 54.5643C31.685 57.2992 34.8657 59.1309 38.2044 60.2602C37.8266 60.3316 37.4493 60.3985 37.0738 60.4562C32.0211 61.1826 29.472 60.335 24.6048 58.8239L24.6043 58.8236C23.075 54.0148 22.217 51.4963 22.9522 46.5042C23.0113 46.133 23.0783 45.7601 23.1506 45.3866V45.3866Z" fill="white"/>
    <path opacity="0.5" d="M37.6024 20.824L40.8647 17.6326L32.2406 17.3825C16.4235 16.924 7.60366 31.1523 7.60366 31.1523L6.97546 32.0685L7.65906 33.0236C7.65906 33.0236 12.524 39.8661 20.1421 44.9177L20.9442 41.584C15.4565 37.7407 12.0366 33.358 11.1368 32.1719C12.9631 29.7724 20.2881 20.3193 32.3348 20.6685L37.6024 20.824Z" fill="url(#paint0_radial)"/>
    <path opacity="0.5" d="M63.067 45.9825L66.2971 42.7594L66.5503 51.2799C67.0143 66.9071 52.6131 75.621 52.6131 75.621L51.6858 76.2417L50.7191 75.5663C50.7191 75.5663 43.7934 70.7598 38.6804 63.2332L42.0546 62.4407C45.9447 67.8625 50.3806 71.2414 51.5811 72.1303C54.0098 70.3259 63.5778 63.0889 63.2243 51.1869L63.067 45.9825Z" fill="url(#paint1_radial)"/>
    <path d="M117.89 15.9178C116.896 15.9424 113.888 18.6696 112.624 18.6696V37.5502C112.251 38.0318 111.876 38.5148 111.516 38.9787C111.51 38.9872 111.503 38.9924 111.497 39.0006C111.306 39.2486 111.121 39.4844 110.936 39.7209C110.852 39.8275 110.767 39.9379 110.685 40.0427C109.974 40.9411 109.301 41.7518 108.652 42.4815C108.602 42.5366 108.551 42.5954 108.502 42.649C105.781 45.6719 103.474 47.2293 100.601 47.542C95.7422 48.0706 94.4389 42.3943 94.423 38.5453C94.4068 35.8345 94.9483 33.6718 95.999 32.0569C97.0498 30.442 98.1446 29.6345 99.2829 29.6345C100.45 29.6345 101.311 29.9801 101.865 30.6722C102.449 31.3643 102.741 32.359 102.741 33.6567C102.741 34.9255 102.216 36.1949 101.165 37.4638C100.155 38.6903 98.7151 39.4033 96.8472 39.5748C96.5665 39.6006 96.3456 39.8185 96.3453 40.0969C96.3451 40.3862 96.5884 40.5611 96.8748 40.6212C97.6898 40.7925 98.5979 40.9234 99.5028 40.9234C102.159 40.9234 104.289 40.1596 105.894 38.6312C107.528 37.074 108.346 35.3875 108.346 33.5708C108.346 31.754 107.616 30.2541 106.156 29.0719C104.697 27.8895 102.683 27.298 100.114 27.298H100.114C96.2027 27.298 93.1375 28.3941 90.9192 30.5857C88.7301 32.7486 87.637 35.4302 87.637 38.6312C87.637 41.8322 88.6718 44.5715 90.7441 46.8496C92.8165 49.099 95.5901 50.2244 99.0636 50.2244C101.107 50.2244 102.916 49.7106 104.579 48.8397C106.577 47.7934 108.363 46.2357 110.027 44.4037L110.028 44.4048C110.852 43.5727 111.723 42.4756 112.624 41.2621V48.3394C112.624 49.0218 113.184 49.5752 113.875 49.5752H117.904C118.909 49.5752 119.192 49.2743 119.192 48.0302C119.192 46.6531 119.32 46.687 119.592 47.1528C120.993 49.2003 122.592 50.2238 125.19 50.2238C128.575 50.2238 131.202 49.1428 133.07 46.9799C134.404 45.4588 135.268 43.6507 135.664 41.5588C136.114 43.5358 137.043 45.2997 138.452 46.8496C140.525 49.099 143.298 50.2243 146.771 50.2243C148.814 50.2243 150.624 49.7106 152.288 48.8396C155.541 47.1361 158.234 44.0804 160.748 40.6841C160.748 40.6778 160.764 40.6713 160.764 40.6634C162.385 38.4923 163.932 36.2242 165.303 34.3491C167.288 37.2328 168.28 40.0014 168.28 42.6545C168.28 44.3271 167.798 45.5671 166.835 46.3746C165.901 47.1532 164.689 47.542 163.201 47.542C161.713 47.542 160.327 47.0382 159.043 46.0298C158.753 45.7561 158.294 45.7659 158.016 46.0517C157.737 46.3383 157.774 46.7677 158.037 47.0686C158.795 47.9386 159.832 48.7119 161.233 49.3175C162.663 49.9231 164.078 50.226 165.479 50.226C168.544 50.226 170.909 49.4756 172.572 47.976C173.442 47.1773 174.082 46.2912 174.497 45.3194V48.3395C174.497 49.0219 175.057 49.5753 175.748 49.5753H179.814C180.505 49.5753 181.064 49.0219 181.064 48.3395V34.3052C181.064 33.0075 181.531 31.9547 182.465 31.1472C183.399 30.3398 184.363 29.9366 185.355 29.9366C186.348 29.9366 187.121 30.1819 187.676 30.6722C188.23 31.1624 188.507 31.8541 188.507 32.7481V43.8651C188.507 48.1043 190.302 50.2238 193.893 50.2238C196.786 49.8446 199.234 48.5523 200.903 47.0707C200.98 47.003 201.046 46.9273 201.097 46.8447C201.143 46.904 201.187 46.9647 201.235 47.0231C202.986 49.1571 205.541 50.2238 208.897 50.2238C211.845 50.2238 214.078 48.94 215.596 46.3735C216.238 48.94 217.945 50.2238 220.718 50.2238C223.049 50.2238 225.376 49.171 227.709 47.0773C227.874 46.9294 228.025 46.7487 228.025 46.5218C228.025 46.1615 227.729 45.8696 227.364 45.8699C227.207 45.8701 227.064 45.9384 226.935 46.0275C226.11 46.5975 225.13 47.2637 224.221 47.282C223.433 47.282 222.849 47.066 222.469 46.6334C222.09 46.172 221.9 45.5523 221.9 44.7737V29.1824C221.9 28.5003 221.341 27.9294 220.651 27.9466C219.622 27.9721 216.386 31.7488 215.333 30.369C213.826 28.3957 211.933 27.298 209.335 27.298C205.95 27.298 203.308 28.3791 201.41 30.5419C199.542 32.7047 198.608 35.4589 198.608 38.8041C198.608 41.5604 199.215 43.9171 200.425 45.8765H200.424C200.308 45.8976 200.199 45.9497 200.11 46.0275C199.088 46.8639 198.183 47.282 197.395 47.282C196.607 47.282 196.024 47.066 195.645 46.6334C195.265 46.172 195.075 45.5523 195.075 44.7737V33.6567C195.075 31.6957 194.491 30.1528 193.324 29.0281C192.185 27.8746 190.696 27.298 188.858 27.298C187.048 27.298 185.544 27.514 184.348 27.9466C183.18 28.3791 182.086 29.1429 181.064 30.2387V17.2045C181.064 16.4939 180.482 15.8999 179.763 15.9178C178.77 15.9424 175.761 18.6696 174.497 18.6696V39.1095C174.178 38.2451 173.727 37.4368 173.141 36.6866C171.857 35.014 170.019 33.3126 167.625 31.5824C168.53 30.5731 168.982 29.6215 168.982 28.7276C168.982 27.8336 168.647 27.0687 167.975 26.4343C167.333 25.7713 166.545 25.4401 165.612 25.4399L165.607 25.4378C164.674 25.438 163.871 25.7692 163.2 26.4322C162.558 27.0665 162.236 27.8021 162.236 28.6384C162.236 29.7927 163.191 31.3725 163.972 32.5057C162.19 35.0619 160.38 37.4102 158.778 39.5392C154.909 44.6824 152.035 47.136 148.308 47.5415C143.45 48.0701 142.146 42.3938 142.13 38.5448C142.114 35.834 142.656 33.6713 143.706 32.0564C144.757 30.4415 145.852 29.634 146.99 29.634C148.158 29.634 149.018 29.9796 149.573 30.6717C150.157 31.3638 150.449 32.3585 150.449 33.6562C150.449 34.925 149.924 36.1944 148.873 37.4633C147.863 38.6897 146.422 39.4028 144.555 39.5743C144.274 39.6001 144.053 39.818 144.053 40.0964C144.052 40.3857 144.296 40.5606 144.582 40.6207C145.397 40.7919 146.305 40.9229 147.21 40.9229C149.866 40.9229 151.996 40.1591 153.601 38.6307C155.236 37.0735 156.053 35.387 156.053 33.5703C156.053 31.7535 155.324 30.2536 153.864 29.0714C152.404 27.889 150.39 27.2975 147.822 27.2975C143.911 27.2975 140.846 28.3936 138.628 30.5852C137.117 32.0779 136.128 33.8179 135.661 35.8049C135.285 33.7638 134.494 32.0094 133.29 30.5414C131.538 28.3786 128.984 27.2975 125.627 27.2975C124.481 27.2975 123.441 27.4994 122.504 27.8968L122.502 27.8937C122.487 27.9 122.472 27.9088 122.458 27.9156C122.142 28.0521 121.838 28.2098 121.546 28.3917C120.753 28.8562 119.968 29.4455 119.192 30.1212V17.2045C119.192 16.4939 118.609 15.8999 117.89 15.9178H117.89ZM165.098 27.31C165.181 27.3143 165.266 27.327 165.35 27.3484C166.354 27.6019 166.553 29.2681 165.783 30.2338C164.986 29.6865 163.987 29.1991 163.991 28.3812C163.991 27.6586 164.514 27.2792 165.098 27.3101V27.31ZM124.139 29.7636C125.832 29.7636 127.087 30.5712 127.904 32.186C128.721 33.801 129.129 35.9919 129.129 38.7603C129.129 41.5287 128.721 43.7208 127.904 45.3357C127.087 46.9506 125.832 47.7581 124.139 47.7581C122.475 47.7581 121.19 46.9506 120.285 45.3357C119.41 43.692 118.973 41.4999 118.973 38.7603C118.973 36.0207 119.41 33.8436 120.285 32.2287C120.762 31.3625 121.345 30.7272 122.033 30.3175C122.402 30.1191 122.769 29.9696 123.133 29.8764C123.452 29.8026 123.786 29.7636 124.139 29.7636V29.7636ZM210.342 29.7636C212.035 29.7636 213.319 30.585 214.194 32.2287C215.099 33.8436 215.553 36.0207 215.553 38.7603C215.553 41.4999 215.099 43.692 214.194 45.3357C213.319 46.9506 212.035 47.7581 210.342 47.7581C208.678 47.7581 207.438 46.9506 206.62 45.3357C205.803 43.7208 205.395 41.5287 205.395 38.7603C205.395 35.9919 205.803 33.801 206.62 32.186C207.438 30.5712 208.678 29.7636 210.342 29.7636V29.7636Z" fill="white"/>
    <path d="M91.5215 55.4681V58.8615C91.3276 58.6334 91.0942 58.4555 90.8218 58.3278C90.5495 58.2001 90.254 58.1363 89.9355 58.1363H89.7211C89.4349 58.1363 89.1651 58.191 88.9112 58.3004C88.6573 58.4053 88.4357 58.5513 88.2464 58.7383C88.0572 58.9253 87.9068 59.1443 87.7961 59.3951C87.6899 59.6459 87.6371 59.9125 87.6371 60.1952V63.3554C87.6371 63.6382 87.6899 63.9053 87.7961 64.1561C87.9068 64.407 88.0572 64.6259 88.2464 64.8129C88.4357 64.9999 88.6573 65.1479 88.9112 65.2573C89.1651 65.3623 89.4349 65.4149 89.7211 65.4149H89.9355C90.2817 65.4149 90.6003 65.3394 90.8911 65.1889C91.1819 65.0339 91.4245 64.8266 91.6184 64.5666L92.0893 65.2781H92.3729V55.4681H91.5215ZM94.3046 55.4681V56.5901H95.2945V55.4681H94.3046ZM103.887 55.4681V56.5901H104.878V55.4681H103.887ZM118.469 55.4681V65.2781H119.32V55.4681H118.469ZM154.237 55.4681V56.5901H155.228V55.4681H154.237ZM199.478 55.4681V65.2781H200.33V55.4681H199.478ZM213.921 55.4681V56.5901H214.911V55.4681H213.921ZM108.36 56.4533L107.508 56.5901V58.2731H106.234V59.0733H107.508V63.431C107.508 63.6863 107.557 63.9256 107.654 64.149C107.755 64.3725 107.889 64.5686 108.056 64.7374C108.226 64.9062 108.425 65.0385 108.651 65.1342C108.882 65.2299 109.126 65.2781 109.385 65.2781H110.16V64.4774H109.385C109.241 64.4774 109.108 64.4526 108.983 64.4024C108.858 64.3478 108.75 64.2747 108.658 64.1835C108.565 64.0923 108.492 63.9874 108.436 63.8688C108.385 63.7457 108.36 63.6134 108.36 63.472V59.0733H110.16V58.2731H108.36L108.36 56.4533ZM210.334 56.4533L209.483 56.5901V58.2731H208.209V59.0733H209.483V63.431C209.483 63.6863 209.531 63.9256 209.628 64.149C209.73 64.3725 209.863 64.5686 210.03 64.7374C210.2 64.9062 210.399 65.0385 210.625 65.1342C210.856 65.2299 211.101 65.2781 211.359 65.2781H212.135V64.4774H211.359C211.216 64.4774 211.082 64.4526 210.958 64.4024C210.833 64.3478 210.725 64.2747 210.632 64.1835C210.54 64.0923 210.466 63.9874 210.411 63.8688C210.36 63.7457 210.334 63.6134 210.334 63.472V59.0733H212.135V58.2731H210.334L210.334 56.4533ZM99.3035 58.1363C99.0174 58.1363 98.7475 58.191 98.4937 58.3004C98.2398 58.4053 98.0182 58.5513 97.8289 58.7383C97.6396 58.9253 97.4899 59.1443 97.3791 59.3951C97.273 59.6459 97.2195 59.9125 97.2195 60.1952V60.7218C97.2195 61.041 97.2842 61.3355 97.4134 61.6046C97.5427 61.8736 97.7181 62.1038 97.9397 62.2953C97.7551 62.4275 97.6099 62.6009 97.5037 62.8152C97.3976 63.025 97.3442 63.2531 97.3442 63.4994C97.3442 63.773 97.4088 64.0239 97.5381 64.2519C97.6719 64.4754 97.8494 64.6533 98.071 64.7856C97.8956 64.9543 97.7576 65.1524 97.6561 65.3805C97.5545 65.6085 97.5037 65.8594 97.5037 66.133V66.1603C97.5037 66.4431 97.5566 66.7031 97.6627 66.9403C97.7735 67.1774 97.9233 67.3801 98.1125 67.5489C98.3018 67.7176 98.5234 67.8479 98.7773 67.9391C99.0312 68.0349 99.3015 68.0825 99.5877 68.0825H99.9406C100.227 68.0825 100.497 68.0348 100.75 67.9391C101.004 67.8479 101.226 67.7176 101.415 67.5489C101.605 67.3801 101.752 67.1774 101.858 66.9403C101.969 66.7031 102.025 66.4431 102.025 66.1603V66.133C102.025 65.8503 101.969 65.5903 101.858 65.3531C101.752 65.116 101.604 64.9127 101.415 64.744C101.226 64.5752 101.004 64.4455 100.75 64.3543C100.497 64.2585 100.227 64.2109 99.9406 64.2109H98.7773C98.6804 64.2109 98.588 64.1926 98.5003 64.1561C98.4126 64.1197 98.3341 64.0695 98.2649 64.0056C98.2002 63.9372 98.1495 63.8596 98.1125 63.773C98.0755 63.6863 98.0571 63.5951 98.0571 63.4993C98.0571 63.4036 98.0755 63.3123 98.1125 63.2257C98.1495 63.1345 98.2003 63.057 98.2649 62.9931C98.3341 62.9293 98.4126 62.8791 98.5003 62.8426C98.588 62.8016 98.6804 62.7812 98.7773 62.7812H100.01C100.296 62.7812 100.566 62.7285 100.82 62.6236C101.074 62.5142 101.295 62.3662 101.484 62.1792C101.674 61.9922 101.821 61.7732 101.928 61.5224C102.038 61.2716 102.094 61.0044 102.094 60.7217V58.273H101.81L101.346 58.9845C101.152 58.7246 100.908 58.5193 100.613 58.3688C100.322 58.2138 100.003 58.1362 99.657 58.1362L99.3035 58.1363ZM113.885 58.1363C113.599 58.1363 113.329 58.191 113.075 58.3004C112.821 58.4053 112.6 58.5513 112.411 58.7383C112.222 58.9253 112.071 59.1443 111.96 59.3951C111.854 59.6459 111.802 59.9125 111.802 60.1952V60.2637L112.653 60.4005V60.1471C112.653 59.9783 112.685 59.8212 112.75 59.6753C112.814 59.5248 112.902 59.3951 113.013 59.2856C113.124 59.1762 113.253 59.0895 113.401 59.0256C113.553 58.9618 113.715 58.9299 113.885 58.9299H114.384C114.555 58.9299 114.714 58.9618 114.862 59.0256C115.014 59.0895 115.145 59.1762 115.256 59.2856C115.367 59.3951 115.455 59.5248 115.519 59.6753C115.584 59.8212 115.616 59.9783 115.616 60.1471V61.228H113.816C113.53 61.228 113.26 61.2828 113.006 61.3922C112.752 61.4971 112.53 61.6431 112.341 61.8301C112.152 62.0171 112.002 62.236 111.891 62.4868C111.785 62.7377 111.732 63.0043 111.732 63.287V63.3554C111.732 63.6382 111.785 63.9053 111.891 64.1562C112.002 64.407 112.152 64.626 112.341 64.8129C112.53 64.9999 112.752 65.1479 113.006 65.2573C113.26 65.3623 113.53 65.415 113.816 65.415H114.031C114.377 65.415 114.695 65.3395 114.986 65.1889C115.277 65.0339 115.519 64.8311 115.713 64.5803L116.184 65.2781L116.468 65.2776V60.1953C116.468 59.9125 116.413 59.6459 116.302 59.3951C116.196 59.1443 116.048 58.9253 115.859 58.7383C115.669 58.5514 115.448 58.4054 115.194 58.3005C114.94 58.191 114.67 58.1363 114.384 58.1363L113.885 58.1363ZM126.667 58.1363C126.38 58.1363 126.111 58.191 125.857 58.3004C125.603 58.4053 125.381 58.5513 125.192 58.7383C125.003 58.9253 124.853 59.1443 124.742 59.3951C124.636 59.6459 124.583 59.9125 124.583 60.1952V63.356C124.583 63.6387 124.636 63.9053 124.742 64.1561C124.853 64.407 125.003 64.6259 125.192 64.8129C125.381 64.9999 125.603 65.1479 125.857 65.2573C126.111 65.3623 126.38 65.4149 126.667 65.4149H127.234C127.521 65.4149 127.791 65.3622 128.045 65.2573C128.299 65.1479 128.52 64.9999 128.709 64.8129C128.898 64.6259 129.046 64.407 129.152 64.1561C129.263 63.9053 129.318 63.6387 129.318 63.356V63.0752L128.467 62.9384V63.4036C128.467 63.5723 128.435 63.732 128.37 63.8825C128.305 64.0284 128.218 64.1561 128.107 64.2656C127.996 64.375 127.865 64.4617 127.712 64.5256C127.565 64.5894 127.405 64.6213 127.234 64.6213H126.667C126.496 64.6213 126.334 64.5894 126.182 64.5256C126.034 64.4617 125.905 64.3751 125.794 64.2656C125.683 64.1561 125.596 64.0284 125.531 63.8825C125.466 63.732 125.435 63.5723 125.435 63.4036V61.8437H129.318V60.1952C129.318 59.9125 129.263 59.6459 129.152 59.3951C129.046 59.1443 128.898 58.9253 128.709 58.7383C128.52 58.5514 128.299 58.4054 128.045 58.3004C127.791 58.191 127.521 58.1363 127.234 58.1363H126.667ZM139.482 58.1363C139.136 58.1363 138.816 58.2138 138.52 58.3689C138.229 58.5194 137.987 58.7246 137.793 58.9846L137.329 58.2731H137.046V68.0825H137.897V64.6898C138.091 64.9178 138.324 65.0957 138.597 65.2234C138.869 65.3511 139.164 65.4149 139.482 65.4149H139.697C139.984 65.4149 140.253 65.3622 140.507 65.2573C140.761 65.1479 140.983 64.9999 141.172 64.8129C141.361 64.6259 141.509 64.407 141.615 64.1561C141.726 63.9053 141.781 63.6387 141.781 63.356V60.1952C141.781 59.9125 141.726 59.6459 141.615 59.3951C141.509 59.1443 141.361 58.9253 141.172 58.7383C140.983 58.5514 140.761 58.4054 140.507 58.3004C140.253 58.191 139.984 58.1363 139.697 58.1363H139.482ZM145.583 58.1363C145.297 58.1363 145.027 58.191 144.773 58.3004C144.519 58.4053 144.297 58.5513 144.108 58.7383C143.919 58.9253 143.768 59.1443 143.658 59.3951C143.552 59.6459 143.499 59.9125 143.499 60.1952V63.356C143.499 63.6387 143.552 63.9053 143.658 64.1561C143.768 64.407 143.919 64.6259 144.108 64.8129C144.297 64.9999 144.519 65.1479 144.773 65.2573C145.027 65.3623 145.297 65.4149 145.583 65.4149H146.151C146.437 65.4149 146.707 65.3622 146.96 65.2573C147.214 65.1479 147.436 64.9999 147.625 64.8129C147.814 64.6259 147.962 64.407 148.068 64.1561C148.179 63.9053 148.235 63.6387 148.235 63.356V63.0752L147.383 62.9384V63.4036C147.383 63.5723 147.351 63.732 147.286 63.8825C147.222 64.0284 147.134 64.1561 147.023 64.2656C146.912 64.375 146.78 64.4617 146.628 64.5256C146.48 64.5894 146.321 64.6213 146.151 64.6213H145.583C145.412 64.6213 145.25 64.5894 145.098 64.5256C144.95 64.4617 144.821 64.3751 144.71 64.2656C144.599 64.1561 144.512 64.0284 144.447 63.8825C144.382 63.732 144.35 63.5723 144.35 63.4036V61.8437H148.235V60.1952C148.235 59.9125 148.179 59.6459 148.068 59.3951C147.962 59.1443 147.814 58.9253 147.625 58.7383C147.436 58.5514 147.214 58.4054 146.96 58.3004C146.707 58.191 146.437 58.1363 146.151 58.1363H145.583ZM152.389 58.1363C152.043 58.1363 151.722 58.2138 151.426 58.3689C151.136 58.5194 150.894 58.7246 150.7 58.9846L150.235 58.2731H149.952V65.2781H150.803V60.291C150.803 60.1223 150.836 59.9652 150.9 59.8192C150.965 59.6687 151.053 59.5385 151.163 59.429C151.274 59.3196 151.403 59.2329 151.551 59.169C151.703 59.1052 151.865 59.0733 152.036 59.0733H152.887V58.1363L152.389 58.1363ZM159.236 58.1363C158.95 58.1363 158.68 58.191 158.426 58.3004C158.172 58.4053 157.951 58.5513 157.762 58.7383C157.572 58.9253 157.423 59.1443 157.312 59.3951C157.206 59.6459 157.152 59.9125 157.152 60.1952V63.356C157.152 63.6387 157.206 63.9053 157.312 64.1561C157.423 64.407 157.572 64.6259 157.762 64.8129C157.951 64.9999 158.172 65.1479 158.426 65.2573C158.68 65.3623 158.95 65.4149 159.236 65.4149H159.804C160.09 65.4149 160.361 65.3622 160.614 65.2573C160.868 65.1479 161.09 64.9999 161.279 64.8129C161.468 64.6259 161.616 64.407 161.722 64.1561C161.833 63.9053 161.888 63.6387 161.888 63.356V63.0752L161.037 62.9384V63.4036C161.037 63.5723 161.004 63.732 160.94 63.8825C160.875 64.0284 160.787 64.1561 160.677 64.2656C160.566 64.375 160.434 64.4617 160.282 64.5256C160.134 64.5894 159.975 64.6213 159.804 64.6213H159.236C159.065 64.6213 158.904 64.5894 158.752 64.5256C158.604 64.4617 158.475 64.3751 158.364 64.2656C158.254 64.1561 158.166 64.0284 158.101 63.8825C158.037 63.732 158.004 63.5723 158.004 63.4036V61.8437H161.888V60.1952C161.888 59.9125 161.833 59.6459 161.722 59.3951C161.616 59.1443 161.469 58.9253 161.279 58.7383C161.09 58.5514 160.868 58.4054 160.615 58.3004C160.361 58.191 160.09 58.1363 159.804 58.1363H159.236ZM166.043 58.1363C165.697 58.1363 165.375 58.2138 165.08 58.3689C164.789 58.5194 164.547 58.7246 164.353 58.9846L163.89 58.2731H163.605V65.2781H164.457V60.1476C164.457 59.9789 164.49 59.8212 164.554 59.6753C164.619 59.5248 164.706 59.3951 164.817 59.2856C164.928 59.1762 165.057 59.0895 165.205 59.0256C165.357 58.9618 165.519 58.9299 165.689 58.9299H166.257C166.428 58.9299 166.587 58.9618 166.735 59.0256C166.888 59.0895 167.019 59.1762 167.13 59.2856C167.24 59.3951 167.328 59.5248 167.393 59.6753C167.457 59.8212 167.49 59.9789 167.49 60.1476V65.2781H168.341V60.1952C168.341 59.9125 168.286 59.6459 168.175 59.3951C168.069 59.1443 167.922 58.9253 167.732 58.7383C167.543 58.5514 167.321 58.4054 167.068 58.3004C166.814 58.191 166.543 58.1363 166.257 58.1363H166.043ZM172.142 58.1363C171.856 58.1363 171.586 58.191 171.333 58.3004C171.079 58.4053 170.857 58.5513 170.668 58.7383C170.479 58.9253 170.328 59.1443 170.217 59.3951C170.111 59.6459 170.058 59.9125 170.058 60.1952V63.356C170.058 63.6387 170.111 63.9053 170.217 64.1561C170.328 64.407 170.479 64.6259 170.668 64.8129C170.857 64.9999 171.079 65.1479 171.333 65.2573C171.586 65.3623 171.856 65.4149 172.142 65.4149H172.71C172.996 65.4149 173.266 65.3622 173.52 65.2573C173.774 65.1479 173.996 64.9999 174.185 64.8129C174.374 64.6259 174.522 64.407 174.628 64.1561C174.739 63.9053 174.794 63.6387 174.794 63.356V63.0752L173.943 62.9384V63.4036C173.943 63.5723 173.91 63.732 173.846 63.8825C173.781 64.0284 173.694 64.1561 173.583 64.2656C173.472 64.375 173.34 64.4617 173.188 64.5256C173.04 64.5894 172.881 64.6213 172.71 64.6213H172.143C171.972 64.6213 171.81 64.5894 171.658 64.5256C171.51 64.4617 171.381 64.3751 171.27 64.2656C171.159 64.1561 171.071 64.0284 171.007 63.8825C170.942 63.732 170.91 63.5723 170.91 63.4036V60.1476C170.91 59.9789 170.942 59.8212 171.007 59.6753C171.072 59.5248 171.159 59.3951 171.27 59.2856C171.381 59.1762 171.51 59.0895 171.658 59.0256C171.81 58.9618 171.972 58.9299 172.143 58.9299H172.71C172.881 58.9299 173.04 58.9618 173.188 59.0256C173.34 59.0895 173.472 59.1762 173.583 59.2856C173.694 59.3951 173.781 59.5248 173.846 59.6753C173.911 59.8212 173.943 59.9789 173.943 60.1476V60.6128L174.794 60.476V60.1952C174.794 59.9125 174.739 59.6459 174.628 59.3951C174.522 59.1443 174.374 58.9253 174.185 58.7383C173.996 58.5514 173.774 58.4054 173.52 58.3004C173.266 58.191 172.996 58.1363 172.71 58.1363H172.142ZM178.596 58.1363C178.309 58.1363 178.04 58.191 177.786 58.3004C177.532 58.4053 177.31 58.5513 177.121 58.7383C176.932 58.9253 176.781 59.1443 176.671 59.3951C176.564 59.6459 176.512 59.9125 176.512 60.1952V63.356C176.512 63.6387 176.564 63.9053 176.671 64.1561C176.781 64.407 176.932 64.6259 177.121 64.8129C177.31 64.9999 177.532 65.1479 177.786 65.2573C178.04 65.3623 178.309 65.4149 178.596 65.4149H179.163C179.45 65.4149 179.719 65.3622 179.973 65.2573C180.227 65.1479 180.449 64.9999 180.638 64.8129C180.827 64.6259 180.975 64.407 181.081 64.1561C181.192 63.9053 181.247 63.6387 181.247 63.356V63.0752L180.396 62.9384V63.4036C180.396 63.5723 180.364 63.732 180.299 63.8825C180.234 64.0284 180.147 64.1561 180.036 64.2656C179.925 64.375 179.793 64.4617 179.641 64.5256C179.493 64.5894 179.334 64.6213 179.163 64.6213H178.596C178.425 64.6213 178.263 64.5894 178.111 64.5256C177.963 64.4617 177.834 64.3751 177.723 64.2656C177.612 64.1561 177.525 64.0284 177.46 63.8825C177.395 63.732 177.363 63.5723 177.363 63.4036V61.8437H181.247V60.1952C181.247 59.9125 181.192 59.6459 181.081 59.3951C180.975 59.1443 180.827 58.9253 180.638 58.7383C180.449 58.5514 180.227 58.4054 179.973 58.3004C179.72 58.191 179.45 58.1363 179.163 58.1363H178.596ZM188.455 58.1363C188.169 58.1363 187.899 58.1839 187.645 58.2797C187.396 58.3709 187.176 58.5012 186.987 58.6699C186.798 58.8386 186.648 59.0414 186.537 59.2785C186.426 59.5111 186.371 59.7691 186.371 60.0519C186.371 60.3848 186.426 60.6625 186.537 60.886C186.648 61.1094 186.793 61.2965 186.973 61.4469C187.158 61.5929 187.366 61.7115 187.596 61.8027C187.832 61.8939 188.072 61.976 188.317 62.049C188.561 62.1174 188.799 62.1884 189.03 62.2613C189.265 62.3298 189.473 62.4184 189.653 62.5279C189.838 62.6327 189.985 62.7651 190.096 62.9247C190.207 63.0843 190.262 63.2896 190.262 63.5404C190.262 63.7092 190.225 63.8597 190.151 63.9919C190.082 64.1242 189.985 64.2383 189.86 64.334C189.74 64.4253 189.602 64.4957 189.445 64.5458C189.289 64.596 189.124 64.6213 188.954 64.6213H188.386C188.215 64.6213 188.051 64.5895 187.894 64.5256C187.737 64.4617 187.599 64.3751 187.479 64.2656C187.359 64.1562 187.262 64.0284 187.188 63.8825C187.119 63.732 187.084 63.5723 187.084 63.4036V62.9384L186.233 63.0752V63.356C186.233 63.6387 186.291 63.9053 186.406 64.1562C186.526 64.407 186.682 64.626 186.876 64.8129C187.075 64.9999 187.304 65.1479 187.562 65.2573C187.825 65.3623 188.1 65.415 188.386 65.415H188.954C189.24 65.415 189.512 65.3693 189.771 65.2781C190.034 65.1824 190.265 65.0501 190.463 64.8813C190.662 64.7126 190.819 64.5119 190.934 64.2793C191.049 64.0422 191.107 63.7821 191.107 63.4994C191.107 63.1665 191.051 62.8882 190.941 62.6647C190.83 62.4367 190.682 62.2477 190.498 62.0972C190.317 61.9466 190.11 61.8235 189.875 61.7277C189.644 61.632 189.406 61.5473 189.161 61.4743C188.921 61.3968 188.684 61.3238 188.448 61.2554C188.218 61.1824 188.01 61.0938 187.825 60.9889C187.645 60.884 187.499 60.7562 187.389 60.6057C187.278 60.4507 187.223 60.2525 187.223 60.0108C187.223 59.8421 187.255 59.6915 187.319 59.5593C187.384 59.4271 187.472 59.315 187.583 59.2238C187.693 59.128 187.823 59.0551 187.97 59.0049C188.123 58.9548 188.284 58.9299 188.455 58.9299H188.954C189.124 58.9299 189.284 58.9618 189.432 59.0256C189.584 59.0895 189.715 59.1761 189.826 59.2856C189.937 59.395 190.025 59.5248 190.089 59.6753C190.154 59.8212 190.186 59.9789 190.186 60.1476V60.3594L191.038 60.2226V60.1953C191.038 59.9125 190.982 59.6459 190.871 59.3951C190.765 59.1443 190.617 58.9253 190.428 58.7383C190.239 58.5514 190.017 58.4054 189.763 58.3005C189.51 58.191 189.24 58.1363 188.954 58.1363L188.455 58.1363ZM194.825 58.1363C194.539 58.1363 194.269 58.191 194.015 58.3004C193.761 58.4053 193.54 58.5513 193.35 58.7383C193.161 58.9253 193.011 59.1443 192.9 59.3951C192.794 59.6459 192.741 59.9125 192.741 60.1952V63.356C192.741 63.6387 192.794 63.9053 192.9 64.1561C193.011 64.407 193.161 64.6259 193.35 64.8129C193.54 64.9999 193.761 65.1479 194.015 65.2573C194.269 65.3623 194.539 65.4149 194.825 65.4149H195.393C195.679 65.4149 195.949 65.3622 196.203 65.2573C196.457 65.1479 196.678 64.9999 196.867 64.8129C197.057 64.6259 197.204 64.407 197.311 64.1561C197.421 63.9053 197.477 63.6387 197.477 63.356V60.1952C197.477 59.9125 197.421 59.6459 197.311 59.3951C197.205 59.1443 197.057 58.9253 196.867 58.7383C196.678 58.5514 196.457 58.4054 196.203 58.3004C195.949 58.191 195.679 58.1363 195.393 58.1363H194.825ZM218.92 58.1363C218.634 58.1363 218.364 58.191 218.11 58.3004C217.856 58.4053 217.634 58.5513 217.445 58.7383C217.256 58.9253 217.106 59.1443 216.995 59.3951C216.889 59.6459 216.836 59.9125 216.836 60.1952V63.356C216.836 63.6387 216.889 63.9053 216.995 64.1561C217.106 64.407 217.256 64.6259 217.445 64.8129C217.634 64.9999 217.856 65.1479 218.11 65.2573C218.364 65.3623 218.634 65.4149 218.92 65.4149H219.488C219.774 65.4149 220.044 65.3622 220.298 65.2573C220.552 65.1479 220.773 64.9999 220.963 64.8129C221.152 64.6259 221.3 64.407 221.406 64.1561C221.517 63.9053 221.572 63.6387 221.572 63.356V60.1952C221.572 59.9125 221.517 59.6459 221.406 59.3951C221.3 59.1443 221.152 58.9253 220.963 58.7383C220.773 58.5514 220.552 58.4054 220.298 58.3004C220.044 58.191 219.774 58.1363 219.488 58.1363H218.92ZM225.726 58.1363C225.38 58.1363 225.059 58.2138 224.763 58.3689C224.473 58.5194 224.23 58.7246 224.037 58.9846L223.573 58.2731H223.289V65.2781H224.14V60.1476C224.14 59.9789 224.173 59.8212 224.238 59.6753C224.302 59.5248 224.39 59.3951 224.501 59.2856C224.612 59.1762 224.74 59.0895 224.888 59.0256C225.04 58.9618 225.202 58.9299 225.373 58.9299H225.941C226.111 58.9299 226.271 58.9618 226.419 59.0256C226.571 59.0895 226.702 59.1762 226.813 59.2856C226.924 59.3951 227.012 59.5248 227.076 59.6753C227.141 59.8212 227.173 59.9789 227.173 60.1476V65.2781H228.025V60.1952C228.025 59.9125 227.969 59.6459 227.858 59.3951C227.752 59.1443 227.604 58.9253 227.415 58.7383C227.226 58.5514 227.004 58.4054 226.75 58.3004C226.497 58.191 226.227 58.1363 225.941 58.1363H225.726ZM94.3738 58.2731V65.2781H95.2253V58.2731H94.3738ZM103.956 58.2731V65.2781H104.808V58.2731H103.956ZM130.752 58.2731L132.739 61.7753L130.752 65.2781H131.673L133.189 62.5897L134.705 65.2781H135.626L133.646 61.7753L135.626 58.2731H134.705L133.189 60.9615L131.673 58.2731H130.752ZM154.307 58.2731V65.2781H155.159V58.2731H154.307ZM202.323 58.2731V63.3554C202.323 63.6382 202.377 63.9053 202.483 64.1561C202.594 64.407 202.744 64.6259 202.933 64.8129C203.122 64.9999 203.344 65.1479 203.598 65.2573C203.851 65.3623 204.121 65.4149 204.407 65.4149H204.622C204.969 65.4149 205.287 65.3394 205.578 65.1889C205.869 65.0339 206.111 64.8266 206.305 64.5666L206.776 65.2781H207.059V58.2731H206.208V63.4036C206.208 63.5723 206.175 63.732 206.111 63.8825C206.046 64.0284 205.959 64.1561 205.848 64.2656C205.737 64.375 205.606 64.4617 205.453 64.5256C205.306 64.5894 205.146 64.6213 204.975 64.6213H204.408C204.237 64.6213 204.075 64.5894 203.923 64.5256C203.775 64.4617 203.646 64.3751 203.535 64.2656C203.424 64.1561 203.337 64.0284 203.272 63.8825C203.207 63.732 203.176 63.5723 203.176 63.4036V58.2731H202.323ZM213.99 58.2731V65.2781H214.842V58.2731H213.99ZM89.7211 58.9299H90.2889C90.4597 58.9299 90.6187 58.9617 90.7664 59.0256C90.9187 59.0895 91.0506 59.1761 91.1614 59.2856C91.2722 59.395 91.3599 59.5248 91.4245 59.6753C91.4892 59.8212 91.5214 59.9789 91.5214 60.1476V63.4035C91.5214 63.5723 91.4891 63.7319 91.4245 63.8825C91.3599 64.0284 91.2722 64.1561 91.1614 64.2656C91.0506 64.375 90.9187 64.4616 90.7664 64.5255C90.6187 64.5894 90.4597 64.6213 90.2889 64.6213H89.7211C89.5503 64.6213 89.3887 64.5894 89.2364 64.5255C89.0887 64.4617 88.9594 64.375 88.8486 64.2656C88.7378 64.1561 88.6501 64.0284 88.5855 63.8825C88.5208 63.7319 88.4886 63.5723 88.4886 63.4035V60.1476C88.4886 59.9789 88.5209 59.8212 88.5855 59.6753C88.6501 59.5248 88.7378 59.395 88.8486 59.2856C88.9594 59.1762 89.0887 59.0895 89.2364 59.0256C89.3887 58.9617 89.5503 58.9299 89.7211 58.9299V58.9299ZM99.3035 58.9299H100.01C100.181 58.9299 100.34 58.9617 100.488 59.0256C100.64 59.0895 100.772 59.1761 100.882 59.2856C100.998 59.395 101.088 59.5248 101.152 59.6753C101.217 59.8212 101.249 59.9789 101.249 60.1476V60.7699C101.249 60.9386 101.217 61.0983 101.152 61.2488C101.087 61.3947 100.998 61.5225 100.882 61.6319C100.772 61.7413 100.64 61.828 100.488 61.8919C100.34 61.9557 100.181 61.9876 100.01 61.9876H99.3035C99.1328 61.9876 98.9712 61.9557 98.8188 61.8919C98.6711 61.828 98.5418 61.7414 98.431 61.6319C98.3202 61.5225 98.2325 61.3947 98.1679 61.2488C98.1033 61.0983 98.0715 60.9386 98.0715 60.7699V60.1476C98.0715 59.9789 98.1034 59.8212 98.1679 59.6753C98.2326 59.5248 98.3203 59.395 98.431 59.2856C98.5418 59.1762 98.6711 59.0895 98.8188 59.0256C98.9712 58.9617 99.1328 58.9299 99.3035 58.9299V58.9299ZM126.667 58.9299H127.234C127.405 58.9299 127.565 58.9617 127.712 59.0256C127.865 59.0895 127.996 59.1761 128.107 59.2856C128.218 59.395 128.305 59.5248 128.37 59.6753C128.435 59.8212 128.467 59.9789 128.467 60.1476V61.1869H125.434V60.1476C125.434 59.9789 125.467 59.8212 125.531 59.6753C125.596 59.5248 125.684 59.395 125.795 59.2856C125.905 59.1762 126.034 59.0895 126.182 59.0256C126.334 58.9617 126.496 58.9299 126.666 58.9299H126.667ZM139.13 58.9299H139.697C139.868 58.9299 140.027 58.9617 140.175 59.0256C140.327 59.0895 140.459 59.1761 140.57 59.2856C140.681 59.395 140.768 59.5248 140.833 59.6753C140.898 59.8212 140.93 59.9789 140.93 60.1476V63.4035C140.93 63.5723 140.898 63.7319 140.833 63.8825C140.768 64.0284 140.681 64.1561 140.57 64.2656C140.459 64.375 140.327 64.4616 140.175 64.5255C140.027 64.5894 139.868 64.6213 139.697 64.6213H139.13C138.959 64.6213 138.797 64.5894 138.645 64.5255C138.497 64.4617 138.368 64.375 138.257 64.2656C138.146 64.1561 138.059 64.0284 137.994 63.8825C137.929 63.7319 137.897 63.5723 137.897 63.4035V60.1476C137.897 59.9789 137.929 59.8212 137.994 59.6753C138.059 59.5248 138.146 59.395 138.257 59.2856C138.368 59.1762 138.497 59.0895 138.645 59.0256C138.797 58.9617 138.959 58.9299 139.13 58.9299ZM145.583 58.9299H146.151C146.321 58.9299 146.48 58.9617 146.628 59.0256C146.78 59.0895 146.912 59.1761 147.023 59.2856C147.134 59.395 147.222 59.5248 147.286 59.6753C147.351 59.8212 147.383 59.9789 147.383 60.1476V61.1869H144.35V60.1476C144.35 59.9789 144.383 59.8212 144.447 59.6753C144.512 59.5248 144.599 59.395 144.71 59.2856C144.821 59.1762 144.95 59.0895 145.098 59.0256C145.25 58.9617 145.412 58.9299 145.583 58.9299H145.583ZM159.237 58.9299H159.804C159.975 58.9299 160.134 58.9617 160.282 59.0256C160.434 59.0895 160.566 59.1761 160.677 59.2856C160.787 59.395 160.875 59.5248 160.94 59.6753C161.004 59.8212 161.037 59.9789 161.037 60.1476V61.1869H158.004V60.1476C158.004 59.9789 158.037 59.8212 158.101 59.6753C158.166 59.5248 158.253 59.395 158.364 59.2856C158.475 59.1762 158.604 59.0895 158.752 59.0256C158.904 58.9617 159.066 58.9299 159.237 58.9299H159.237ZM178.596 58.9299H179.163C179.334 58.9299 179.493 58.9617 179.641 59.0256C179.793 59.0895 179.925 59.1761 180.036 59.2856C180.147 59.395 180.234 59.5248 180.299 59.6753C180.364 59.8212 180.396 59.9789 180.396 60.1476V61.1869H177.363V60.1476C177.363 59.9789 177.395 59.8212 177.46 59.6753C177.525 59.5248 177.612 59.395 177.723 59.2856C177.834 59.1762 177.963 59.0895 178.111 59.0256C178.263 58.9617 178.425 58.9299 178.595 58.9299H178.596ZM194.825 58.9299H195.393C195.564 58.9299 195.723 58.9617 195.87 59.0256C196.023 59.0895 196.155 59.1761 196.265 59.2856C196.376 59.395 196.464 59.5248 196.528 59.6753C196.593 59.8212 196.625 59.9789 196.625 60.1476V63.4035C196.625 63.5723 196.593 63.7319 196.528 63.8825C196.464 64.0284 196.376 64.1561 196.265 64.2656C196.155 64.375 196.023 64.4616 195.87 64.5255C195.723 64.5894 195.564 64.6213 195.393 64.6213H194.825C194.654 64.6213 194.493 64.5894 194.34 64.5255C194.193 64.4617 194.063 64.375 193.953 64.2656C193.842 64.1561 193.754 64.0284 193.689 63.8825C193.625 63.7319 193.592 63.5723 193.592 63.4035V60.1476C193.592 59.9789 193.625 59.8212 193.689 59.6753C193.754 59.5248 193.842 59.395 193.953 59.2856C194.063 59.1762 194.193 59.0895 194.34 59.0256C194.493 58.9617 194.654 58.9299 194.825 58.9299ZM218.92 58.9299H219.487C219.658 58.9299 219.818 58.9617 219.966 59.0256C220.118 59.0895 220.249 59.1761 220.36 59.2856C220.471 59.395 220.558 59.5248 220.623 59.6753C220.688 59.8212 220.72 59.9789 220.72 60.1476V63.4035C220.72 63.5723 220.688 63.7319 220.623 63.8825C220.558 64.0284 220.471 64.1561 220.36 64.2656C220.249 64.375 220.118 64.4616 219.966 64.5255C219.818 64.5894 219.658 64.6213 219.487 64.6213H218.92C218.749 64.6213 218.588 64.5894 218.435 64.5255C218.288 64.4617 218.158 64.375 218.048 64.2656C217.937 64.1561 217.849 64.0284 217.785 63.8825C217.72 63.7319 217.688 63.5723 217.688 63.4035V60.1476C217.688 59.9789 217.72 59.8212 217.785 59.6753C217.849 59.5248 217.937 59.395 218.048 59.2856C218.158 59.1762 218.288 59.0895 218.435 59.0256C218.588 58.9617 218.749 58.9299 218.92 58.9299ZM113.816 61.8848H115.616V63.4036C115.616 63.5723 115.584 63.732 115.519 63.8825C115.455 64.0284 115.367 64.1561 115.256 64.2656C115.145 64.375 115.014 64.4617 114.862 64.5256C114.714 64.5894 114.555 64.6213 114.384 64.6213H113.816C113.646 64.6213 113.484 64.5894 113.332 64.5256C113.184 64.4617 113.055 64.3751 112.944 64.2656C112.833 64.1561 112.745 64.0284 112.681 63.8825C112.616 63.732 112.584 63.5723 112.584 63.4036V63.1097C112.584 62.9409 112.616 62.7833 112.681 62.6374C112.745 62.4869 112.833 62.3571 112.944 62.2477C113.055 62.1337 113.184 62.0445 113.332 61.9806C113.484 61.9167 113.646 61.8848 113.816 61.8848L113.816 61.8848ZM99.5462 65.011H99.9821C100.153 65.011 100.313 65.0364 100.46 65.0866C100.613 65.1367 100.744 65.2071 100.855 65.2984C100.965 65.3896 101.053 65.5016 101.118 65.6339C101.182 65.7707 101.215 65.9232 101.215 66.092V66.2014C101.215 66.3702 101.182 66.5207 101.118 66.653C101.053 66.7852 100.965 66.8967 100.855 66.9879C100.744 67.0837 100.613 67.1566 100.46 67.2068C100.313 67.2569 100.153 67.2824 99.9821 67.2824H99.5462C99.3754 67.2824 99.2138 67.2569 99.0615 67.2068C98.9138 67.1566 98.7845 67.0836 98.6737 66.9879C98.5629 66.8967 98.4752 66.7852 98.4106 66.653C98.3459 66.5207 98.3136 66.3702 98.3136 66.2014V66.092C98.3136 65.9232 98.346 65.7707 98.4106 65.6339C98.4752 65.5016 98.5629 65.3896 98.6737 65.2984C98.7845 65.2071 98.9138 65.1367 99.0615 65.0866C99.2138 65.0364 99.3754 65.011 99.5462 65.011V65.011Z" fill="white"/><path d="M159.69 38.332C161.051 36.5321 162.52 34.5881 163.972 32.5063L165.303 34.3488C164.733 35.1291 164.132 35.9775 163.508 36.8587C162.632 38.095 161.711 39.3958 160.764 40.6634C160.764 40.6714 160.748 40.6779 160.748 40.6843C160.628 40.8462 160.507 41.005 160.385 41.1639C160.329 41.2366 160.274 41.3094 160.218 41.3824L158.39 40.0466C158.431 39.9928 158.472 39.9396 158.513 39.8863C158.601 39.7725 158.689 39.6586 158.778 39.5398C159.075 39.1447 159.38 38.7421 159.69 38.332Z" fill="url(#paint2_linear)"/>
    <path d="M121.884 30.4097C121.888 30.4076 121.891 30.4056 121.895 30.4036L121.893 30.4036C121.89 30.4056 121.887 30.4076 121.884 30.4097Z" fill="url(#paint3_linear)"/>
    <path d="M121.884 30.4097C119.38 31.843 116.795 35.4584 114.367 38.8547C113.776 39.6818 113.194 40.4959 112.624 41.2623V48.3397C112.624 48.7249 112.806 49.0646 113.086 49.2912L120.245 45.2515C119.398 43.617 118.973 41.455 118.973 38.7604C118.973 36.0208 119.41 33.8437 120.286 32.2288C120.385 32.0494 120.489 31.8838 120.597 31.7245C120.623 31.6866 120.647 31.6477 120.674 31.611C120.771 31.4745 120.873 31.3462 120.977 31.2251C121.012 31.1842 121.048 31.1447 121.084 31.1059C121.096 31.0926 121.108 31.0793 121.12 31.0661C121.188 30.9939 121.258 30.9253 121.329 30.8591C121.428 30.7651 121.532 30.6782 121.637 30.5966C121.668 30.5729 121.698 30.5497 121.729 30.527C121.751 30.5114 121.771 30.4949 121.792 30.4784C121.822 30.4547 121.853 30.431 121.884 30.4097Z" fill="url(#paint4_linear)"/>
    <defs>
        <radialGradient id="paint0_radial" cx="0" cy="0" r="1" gradientUnits="userSpaceOnUse" gradientTransform="translate(35.2641 32.8212) rotate(-44.6539) scale(57.5881 21.1144)">
            <stop stop-color="#D14103" stop-opacity="0.62"/>
            <stop offset="1" stop-color="#FF78C1" stop-opacity="0"/>
        </radialGradient>
        <radialGradient id="paint1_radial" cx="0" cy="0" r="1" gradientUnits="userSpaceOnUse" gradientTransform="translate(46.8037 59.5005) rotate(-47.9613) scale(48.2434 17.7128)">
            <stop stop-color="#D14103" stop-opacity="0.62"/>
            <stop offset="1" stop-color="#FF78C1" stop-opacity="0"/>
        </radialGradient>
        <linearGradient id="paint2_linear" x1="169.502" y1="29.9895" x2="163.438" y2="38.9155" gradientUnits="userSpaceOnUse">
            <stop stop-color="#D14103" stop-opacity="0.62"/>
            <stop offset="1" stop-color="#FF78C1" stop-opacity="0"/>
        </linearGradient>
        <linearGradient id="paint3_linear" x1="109.857" y1="23.923" x2="121.685" y2="43.4283" gradientUnits="userSpaceOnUse">
            <stop stop-color="#D14103" stop-opacity="0.62"/>
            <stop offset="1" stop-color="#FF78C1" stop-opacity="0"/>
        </linearGradient>
        <linearGradient id="paint4_linear" x1="109.857" y1="23.923" x2="121.685" y2="43.4283" gradientUnits="userSpaceOnUse">
            <stop stop-color="#D14103" stop-opacity="0.62"/>
            <stop offset="1" stop-color="#FF78C1" stop-opacity="0"/>
        </linearGradient>
    </defs>
</svg>
