<svg width="16" height="16" viewBox="0 0 16 16" fill="none" xmlns="http://www.w3.org/2000/svg">
<path fill-rule="evenodd" clip-rule="evenodd" d="M0.651855 15.3481C-0.217163 14.479 -0.217163 13.0698 0.651855 12.2009L4.85266 8L0.651855 3.79907C-0.217285 2.92993 -0.217285 1.521 0.651855 0.651855C1.52087 -0.217285 2.92993 -0.217285 3.79907 0.651855L8 4.85278L12.2009 0.651855C13.0699 -0.217285 14.479 -0.217285 15.3481 0.651855C16.2172 1.521 16.2172 2.92993 15.3481 3.79907L11.1472 8L15.348 12.2009C16.2172 13.0701 16.2172 14.479 15.348 15.3481C14.479 16.2173 13.0699 16.2173 12.2008 15.3481L8 11.1472L3.79907 15.3481C2.93005 16.217 1.521 16.217 0.651855 15.3481ZM8 9C8.55225 9 9 8.55225 9 8C9 7.44775 8.55225 7 8 7C7.44775 7 7 7.44775 7 8C7 8.55225 7.44775 9 8 9Z" fill="black"/>
</svg>
