<svg width="16" height="16" viewBox="0 0 16 16" fill="none" xmlns="http://www.w3.org/2000/svg">
<path fill-rule="evenodd" clip-rule="evenodd" d="M2 0C0.895386 0 0 0.895508 0 2C0 3.10449 0.895386 4 2 4H14C15.1046 4 16 3.10449 16 2C16 0.895508 15.1046 0 14 0H2ZM8 3C8.55225 3 9 2.55225 9 2C9 1.44775 8.55225 1 8 1C7.44775 1 7 1.44775 7 2C7 2.55225 7.44775 3 8 3Z" fill="black"/>
<path fill-rule="evenodd" clip-rule="evenodd" d="M2 6C0.895386 6 0 6.89551 0 8C0 9.10449 0.895386 10 2 10H14C15.1046 10 16 9.10449 16 8C16 6.89551 15.1046 6 14 6H2ZM8 9C8.55225 9 9 8.55225 9 8C9 7.44775 8.55225 7 8 7C7.44775 7 7 7.44775 7 8C7 8.55225 7.44775 9 8 9Z" fill="black"/>
<path fill-rule="evenodd" clip-rule="evenodd" d="M0 14C0 12.8955 0.895386 12 2 12H14C15.1046 12 16 12.8955 16 14C16 15.1045 15.1046 16 14 16H2C0.895386 16 0 15.1045 0 14ZM9 14C9 14.5522 8.55225 15 8 15C7.44775 15 7 14.5522 7 14C7 13.4478 7.44775 13 8 13C8.55225 13 9 13.4478 9 14Z" fill="black"/>
</svg>
