<svg width="24" height="24" viewBox="0 0 24 24" fill="none" xmlns="http://www.w3.org/2000/svg">
    <path fill-rule="evenodd" clip-rule="evenodd" d="M20.0303 5.53033C20.3232 5.23744 20.3232 4.76256 20.0303 4.46967C19.7374 4.17678 19.2626 4.17678 18.9697 4.46967L16.1757 7.26363C14.9355 6.67323 13.5182 6.25 12 6.25C9.27251 6.25 6.86082 7.61456 5.17941 8.90503C4.32972 9.55716 3.6436 10.208 3.16934 10.6961C2.93181 10.9406 2.74633 11.1454 2.61895 11.2907C2.55523 11.3633 2.50596 11.4212 2.47191 11.4618C2.45488 11.4821 2.44165 11.4981 2.43231 11.5094L2.42122 11.523L2.41788 11.5271L2.41677 11.5285C2.41677 11.5285 2.41603 11.5294 3 12L2.41603 11.5294C2.19466 11.8041 2.19466 12.1959 2.41603 12.4706L2.41717 12.472L2.41905 12.4743L2.42499 12.4816L2.44553 12.5066C2.46304 12.5277 2.48815 12.5577 2.5206 12.5957C2.58548 12.6717 2.67979 12.7799 2.80146 12.9133C3.04459 13.18 3.39803 13.5489 3.84508 13.9649C4.64367 14.7079 5.75587 15.615 7.08476 16.3546L4.46967 18.9697C4.17678 19.2626 4.17678 19.7374 4.46967 20.0303C4.76256 20.3232 5.23744 20.3232 5.53033 20.0303L20.0303 5.53033ZM8.19329 15.246L8.86808 14.5713C7.87723 13.7016 7.25 12.424 7.25 11C7.25 10.2993 7.40173 9.63402 7.67412 9.03524C7.10578 9.36123 6.57521 9.72463 6.09267 10.095C5.31368 10.6928 4.68178 11.292 4.24519 11.7414C4.15451 11.8347 4.07246 11.9214 3.99944 12C4.21438 12.2315 4.50721 12.5321 4.86687 12.8667C5.68845 13.6312 6.84043 14.556 8.19329 15.246ZM9.93201 13.5073L11.3634 12.076C10.9962 11.8582 10.75 11.4579 10.75 11C10.75 10.3096 11.3096 9.75 12 9.75C12.4579 9.75 12.8582 9.99617 13.076 10.3634L15.0401 8.39928C14.0816 8.00172 13.0567 7.75 12 7.75C10.2051 7.75 8.75 9.20507 8.75 11C8.75 12.0087 9.2089 12.9102 9.93201 13.5073ZM12.25 11C12.25 11.1381 12.1381 11.25 12 11.25C11.8619 11.25 11.75 11.1381 11.75 11C11.75 10.8619 11.8619 10.75 12 10.75C12.1381 10.75 12.25 10.8619 12.25 11Z" fill="#ADB7CB"/>
    <path d="M17.3926 8.78861C17.6356 8.45314 18.1045 8.37816 18.4399 8.62114C19.4021 9.31802 20.1833 10.04 20.724 10.5873C20.9949 10.8614 21.2068 11.0932 21.3524 11.2581C21.4252 11.3406 21.4816 11.4065 21.5204 11.4527C21.5399 11.4758 21.555 11.494 21.5656 11.5069L21.5782 11.5222L21.5819 11.5269L21.5838 11.5292L21 12L21.5836 12.471L21.5821 12.4729L21.5788 12.477L21.5677 12.4906C21.5584 12.5019 21.5451 12.5179 21.5281 12.5382C21.494 12.5788 21.4448 12.6367 21.3811 12.7093C21.2537 12.8546 21.0682 13.0594 20.8307 13.3039C20.3564 13.792 19.6703 14.4428 18.8206 15.095C17.1392 16.3854 14.7275 17.75 12 17.75C11.5126 17.75 11.0354 17.7063 10.5714 17.6276C10.163 17.5583 9.88814 17.171 9.95746 16.7626C10.0268 16.3543 10.414 16.0794 10.8224 16.1487C11.2093 16.2144 11.6023 16.25 12 16.25C14.2431 16.25 16.3314 15.1146 17.9073 13.905C18.6863 13.3072 19.3182 12.708 19.7548 12.2586C19.8455 12.1653 19.9275 12.0786 20.0006 12C19.9021 11.894 19.7872 11.7733 19.6569 11.6415C19.1579 11.1364 18.4391 10.4727 17.5601 9.83596C17.2246 9.59299 17.1496 9.12407 17.3926 8.78861Z" fill="#ADB7CB"/>
    <path d="M21.5836 12.471C21.5836 12.471 21.584 12.4706 21 12C21.584 11.5294 21.5838 11.5292 21.5838 11.5292C21.8052 11.8039 21.805 12.1963 21.5836 12.471Z" fill="#ADB7CB"/>
    <path d="M16.75 11C16.75 10.5858 16.4142 10.25 16 10.25C15.5858 10.25 15.25 10.5858 15.25 11C15.25 12.7949 13.7949 14.25 12 14.25C11.5858 14.25 11.25 14.5858 11.25 15C11.25 15.4142 11.5858 15.75 12 15.75C14.6234 15.75 16.75 13.6234 16.75 11Z" fill="#ADB7CB"/>
</svg>
