<svg width="16" height="16" viewBox="0 0 16 16" fill="none" xmlns="http://www.w3.org/2000/svg">
<path fill-rule="evenodd" clip-rule="evenodd" d="M4 0.5C4 0.223877 4.22388 0 4.5 0H12.5C12.7761 0 13 0.223877 13 0.5V1.5C13 1.77612 13.2239 2 13.5 2H15.5C15.7761 2 16 2.22388 16 2.5V3.5C16 3.77612 15.7761 4 15.5 4H0.5C0.223877 4 0 3.77612 0 3.5V2.5C0 2.22388 0.223877 2 0.5 2H3.5C3.77612 2 4 1.77612 4 1.5V0.5ZM6 1.5C6 1.77612 6.22388 2 6.5 2H10.5C10.7761 2 11 1.77612 11 1.5C11 1.22388 10.7761 1 10.5 1H6.5C6.22388 1 6 1.22388 6 1.5Z" fill="#1B95BC"/>
<path d="M3.5 8C3.77612 8 4 8.22388 4 8.5V12.5C4 12.7761 3.77612 13 3.5 13C3.22388 13 3 12.7761 3 12.5V8.5C3 8.22388 3.22388 8 3.5 8Z" fill="#1B95BC"/>
<path d="M9.5 8C9.77612 8 10 8.22388 10 8.5V12.5C10 12.7761 9.77612 13 9.5 13C9.22388 13 9 12.7761 9 12.5V8.5C9 8.22388 9.22388 8 9.5 8Z" fill="#1B95BC"/>
<path d="M12.5 8C12.2239 8 12 8.22388 12 8.5V12.5C12 12.7761 12.2239 13 12.5 13C12.7761 13 13 12.7761 13 12.5V8.5C13 8.22388 12.7761 8 12.5 8Z" fill="#1B95BC"/>
<path d="M6.5 8C6.77612 8 7 8.22388 7 8.5V12.5C7 12.7761 6.77612 13 6.5 13C6.22388 13 6 12.7761 6 12.5V8.5C6 8.22388 6.22388 8 6.5 8Z" fill="#1B95BC"/>
<path fill-rule="evenodd" clip-rule="evenodd" d="M0.5 5C0.223877 5 0 5.22388 0 5.5V15.5C0 15.7761 0.223877 16 0.5 16H15.5C15.7761 16 16 15.7761 16 15.5V5.5C16 5.22388 15.7761 5 15.5 5H0.5ZM2.19995 7C2.0896 7 2 7.0896 2 7.19995V13.8C2 13.8601 2.02649 13.9141 2.06848 13.9507C2.10364 13.9814 2.14966 14 2.19995 14H13.8C13.9104 14 14 13.9104 14 13.8V7.19995C14 7.0896 13.9104 7 13.8 7H2.19995Z" fill="#1B95BC"/>
</svg>
