<svg width="20" height="19" viewBox="0 0 20 19" fill="none" xmlns="http://www.w3.org/2000/svg">
<path d="M7 1C7 0.447693 7.44772 0 8 0H12C12.5523 0 13 0.447693 13 1V2H19C19.5523 2 20 2.44769 20 3C20 3.55231 19.5523 4 19 4H1C0.447723 4 0 3.55231 0 3C0 2.44769 0.447723 2 1 2H7V1Z" fill="#3589ad"/>
<path fill-rule="evenodd" clip-rule="evenodd" d="M0.259186 6.20953C0.125793 5.58704 0.600342 5 1.237 5H18.763C19.3997 5 19.8742 5.58704 19.7408 6.20953L17.1694 18.2095C17.0706 18.6706 16.6631 19 16.1916 19H3.80841C3.33688 19 2.92941 18.6706 2.83063 18.2095L0.259186 6.20953ZM9 9C9 8.44769 9.44772 8 10 8C10.5523 8 11 8.44769 11 9V15C11 15.5523 10.5523 16 10 16C9.44772 16 9 15.5523 9 15V9ZM14.3486 8.0152C13.7984 7.96704 13.3134 8.37402 13.2653 8.92426L12.7423 14.9014C12.6942 15.4516 13.1012 15.9366 13.6514 15.9847C14.2015 16.0329 14.6866 15.6259 14.7347 15.0757L15.2577 9.09857C15.3058 8.54834 14.8988 8.06335 14.3486 8.0152ZM4.74234 9.09857C4.69421 8.54834 5.1012 8.06335 5.65137 8.0152C6.20157 7.96704 6.68658 8.37408 6.73474 8.92426L7.25766 14.9014C7.30579 15.4516 6.8988 15.9366 6.34863 15.9847C5.79843 16.0329 5.31342 15.6259 5.26526 15.0757L4.74234 9.09857Z" fill="#3589ad"/>
</svg>
