<svg width="20" height="19" viewBox="0 0 20 19" fill="none" xmlns="http://www.w3.org/2000/svg">
<path d="M8 0C7.44772 0 7 0.447693 7 1V2H1C0.447723 2 0 2.44769 0 3C0 3.55231 0.447723 4 1 4H19C19.5523 4 20 3.55231 20 3C20 2.44769 19.5523 2 19 2H13V1C13 0.447693 12.5523 0 12 0H8Z" fill="#3589ad"/>
<path d="M9 9C9 8.44769 9.44772 8 10 8C10.5523 8 11 8.44769 11 9V15C11 15.5523 10.5523 16 10 16C9.44772 16 9 15.5523 9 15V9Z" fill="#3589ad"/>
<path d="M5.65137 8.0152C5.1012 8.06335 4.69421 8.54834 4.74234 9.09857L5.26526 15.0757C5.31342 15.6259 5.79843 16.0329 6.34863 15.9847C6.8988 15.9366 7.30579 15.4516 7.25766 14.9014L6.73474 8.92426C6.68658 8.37408 6.20157 7.96704 5.65137 8.0152Z" fill="#3589ad"/>
<path d="M13.2653 8.92426C13.3134 8.37402 13.7984 7.96704 14.3486 8.0152C14.8988 8.06335 15.3058 8.54834 15.2577 9.09857L14.7347 15.0757C14.6866 15.6259 14.2015 16.0329 13.6514 15.9847C13.1012 15.9366 12.6942 15.4516 12.7423 14.9014L13.2653 8.92426Z" fill="#3589ad"/>
<path fill-rule="evenodd" clip-rule="evenodd" d="M0.259186 6.20953C0.125793 5.58704 0.600342 5 1.237 5H18.763C19.3997 5 19.8742 5.58704 19.7408 6.20953L17.3388 17.4191C17.1412 18.3412 16.3262 19 15.3832 19H4.61682C3.67377 19 2.85883 18.3412 2.66122 17.4191L0.259186 6.20953ZM2.14801 7.6167C2.07254 7.30225 2.31085 7 2.63419 7H17.3658C17.6891 7 17.9275 7.30225 17.852 7.6167L15.968 15.4667C15.7522 16.366 14.948 17 14.0232 17H5.97681C5.052 17 4.24783 16.366 4.03201 15.4667L2.14801 7.6167Z" fill="#3589ad"/>
</svg>
