<svg width="16" height="16" viewBox="0 0 16 16" fill="none" xmlns="http://www.w3.org/2000/svg">
<path fill-rule="evenodd" clip-rule="evenodd" d="M7.79904 0.0747986C7.96017 -0.0249329 8.16403 -0.0249329 8.32516 0.0747986L13.5261 3.29196C13.6972 3.39792 13.6223 3.66208 13.4209 3.66208H9.99996V9.41208C9.99996 9.44321 9.99703 9.4736 9.99166 9.50314C9.94894 9.73581 9.74508 9.91208 9.49996 9.91208H6.49996C6.22384 9.91208 5.99996 9.6882 5.99996 9.41208V3.66208H2.70333C2.59323 3.66208 2.52096 3.5831 2.50607 3.49423C2.49362 3.42062 2.52072 3.34006 2.59835 3.29196L7.79904 0.0747986ZM1 9.91211H5V10.4121C5 10.6883 5.22386 10.9121 5.5 10.9121H10.5C10.7761 10.9121 11 10.6883 11 10.4121V9.91211H15C15.5522 9.91211 16 10.3599 16 10.9121V14.9121C16 15.4644 15.5522 15.9121 15 15.9121H1C0.447754 15.9121 0 15.4644 0 14.9121V10.9121C0 10.3599 0.447754 9.91211 1 9.91211ZM2 12.4121C2 12.136 2.22388 11.9121 2.5 11.9121H9.5C9.77612 11.9121 10 12.136 10 12.4121V13.4121C10 13.6882 9.77612 13.9121 9.5 13.9121H2.5C2.38013 13.9121 2.27026 13.87 2.18408 13.7997C2.11182 13.7406 2.0564 13.6616 2.02588 13.571C2.00903 13.5211 2 13.4677 2 13.4121V12.4121ZM13 13.9121C13.5522 13.9121 14 13.4644 14 12.9121C14 12.3599 13.5522 11.9121 13 11.9121C12.4478 11.9121 12 12.3599 12 12.9121C12 13.4644 12.4478 13.9121 13 13.9121Z" fill="white"/>
</svg>
