<svg width="154" height="154" viewBox="0 0 154 154" fill="none" xmlns="http://www.w3.org/2000/svg">
    <path fill-rule="evenodd" clip-rule="evenodd" d="M154 77C154 119.526 119.526 154 77 154C34.4741 154 0 119.526 0 77C0 34.4741 34.4741 0 77 0C119.526 0 154 34.4741 154 77ZM146 77.5C146 115.332 115.332 146 77.5 146C39.6685 146 9 115.332 9 77.5C9 39.6685 39.6685 9 77.5 9C115.332 9 146 39.6685 146 77.5ZM103.756 46.8842C103.756 61.7318 91.7196 73.7682 76.8719 73.7682C62.0243 73.7682 49.9879 61.7318 49.9879 46.8842C49.9879 32.0364 62.0243 20 76.8719 20C91.7196 20 103.756 32.0364 103.756 46.8842ZM27.1989 106.373L27.1682 106.295C27.1459 106.237 27.1238 106.18 27.1021 106.122C27.0671 106.03 27.0332 105.939 27 105.847C27 94.5861 49.6871 85.457 76.8719 85.457C103.857 85.457 126.667 94.4525 127 105.6C116.451 122.22 97.8849 133.251 76.7421 133.251C56.3009 133.251 38.2679 122.94 27.5605 107.235C27.4552 106.998 27.3552 106.762 27.2607 106.528L27.1989 106.373Z" fill="black"/>
</svg>
